<?xml version="1.0" encoding="UTF-8" standalone="no"?>
<!DOCTYPE svg PUBLIC "-//W3C//DTD SVG 1.1//EN" "http://www.w3.org/Graphics/SVG/1.1/DTD/svg11.dtd">
<svg width="100%" height="100%" viewBox="0 0 292 292" version="1.1" xmlns="http://www.w3.org/2000/svg" xmlns:xlink="http://www.w3.org/1999/xlink" xml:space="preserve" xmlns:serif="http://www.serif.com/" style="fill-rule:evenodd;clip-rule:evenodd;stroke-linejoin:round;stroke-miterlimit:2;">
    <g transform="matrix(1,0,0,1,-305.067,-1112.76)">
        <g>
            <path d="M362.143,1261.2L452.128,1210.08L452.128,1287.98L361.843,1340.04L362.143,1261.2Z" style="fill:rgb(80,126,121);fill-rule:nonzero;"/>
            <path d="M452.127,1210.08L542.716,1261.45L542.716,1340.28L452.127,1287.98L452.127,1210.08Z" style="fill:rgb(103,163,156);fill-rule:nonzero;"/>
            <path d="M404.335,1230.12C408.903,1231.53 413.754,1228.97 415.169,1224.4C416.584,1219.83 414.027,1214.97 409.459,1213.56C404.89,1212.14 400.04,1214.7 398.625,1219.27C397.21,1223.84 399.766,1228.7 404.335,1230.12Z" style="fill:rgb(207,199,255);fill-rule:nonzero;"/>
            <path d="M426.611,1242.16C431.179,1243.57 436.03,1241.01 437.445,1236.44C438.86,1231.87 436.304,1227.01 431.735,1225.6C427.167,1224.18 422.316,1226.74 420.901,1231.31C419.486,1235.88 422.043,1240.74 426.611,1242.16Z" style="fill:rgb(207,199,255);fill-rule:nonzero;"/>
            <path d="M449.302,1254.68C453.87,1256.09 458.72,1253.53 460.135,1248.96C461.55,1244.39 458.994,1239.53 454.426,1238.12C449.857,1236.7 445.007,1239.26 443.592,1243.83C442.177,1248.4 444.733,1253.26 449.302,1254.68Z" style="fill:rgb(207,199,255);fill-rule:nonzero;"/>
            <path d="M466.241,1273.51C470.809,1274.92 475.66,1272.36 477.075,1267.79C478.49,1263.22 475.933,1258.36 471.365,1256.95C466.797,1255.53 461.946,1258.09 460.531,1262.66C459.116,1267.24 461.673,1272.09 466.241,1273.51Z" style="fill:rgb(207,199,255);fill-rule:nonzero;"/>
            <path d="M504.107,1329.42C495.362,1318.62 489.685,1306.31 484.234,1291.68C478.827,1277.13 467.393,1257.75 454.84,1248.59C454.776,1248.57 454.732,1248.48 454.732,1248.48C447.871,1243.4 439.862,1240.21 435.572,1238.18C427.184,1234.17 418.587,1231.3 410.329,1224.37C395.974,1212.4 397.02,1196.75 392.669,1184.92C388.403,1173.05 378.009,1167.58 368.679,1166.16C354.065,1163.88 348.836,1170.56 349.274,1176.18C349.709,1181.59 356.029,1185.24 359.806,1187.11C364.377,1189.38 368.607,1191.6 371.64,1195.43C378.253,1203.81 373.408,1221.51 368.306,1242.09C365.004,1255.48 368.145,1267.36 375.452,1276.45L370.666,1291.92C369.613,1295.32 371.517,1298.94 374.915,1299.99C378.314,1301.04 381.925,1299.14 382.978,1295.74L386.016,1285.92C387.244,1286.72 388.491,1287.46 389.758,1288.13C390.532,1288.58 391.326,1288.97 392.184,1289.37L389.602,1297.72C388.549,1301.12 390.453,1304.74 393.851,1305.79C397.25,1306.84 400.861,1304.94 401.914,1301.54L404.237,1294.03C406.417,1294.7 408.598,1295.38 410.882,1295.95L408.518,1303.58C407.466,1306.99 409.369,1310.6 412.767,1311.65C416.166,1312.71 419.777,1310.8 420.83,1307.4L423.59,1298.48C425.954,1298.79 428.317,1299.1 430.592,1299.24L427.434,1309.45C426.382,1312.85 428.285,1316.47 431.683,1317.52C435.082,1318.57 438.693,1316.67 439.746,1313.27L444.234,1298.76C445.207,1298.57 446.18,1298.38 447.088,1298.17C453.704,1296.77 454.848,1294.66 460.152,1295.46C462.175,1295.74 463.55,1296.52 466.008,1299.25C470.273,1304.09 476.323,1314.97 484.685,1324.74C500.1,1342.6 520.455,1344.27 520.455,1344.27C520.455,1344.27 512.852,1340.22 504.107,1329.42Z" style="fill:rgb(113,217,206);fill-rule:nonzero;"/>
            <path d="M400.597,1264.9C403.289,1265.74 406.146,1264.23 406.98,1261.53C407.813,1258.84 406.307,1255.98 403.616,1255.14C400.925,1254.31 398.067,1255.82 397.233,1258.51C396.4,1261.21 397.906,1264.07 400.597,1264.9Z" style="fill:rgb(247,227,0);fill-rule:nonzero;"/>
            <path d="M426.721,1266.11C432.847,1268.01 439.352,1264.58 441.25,1258.44C443.148,1252.31 439.719,1245.8 433.593,1243.9C427.466,1242 420.961,1245.43 419.064,1251.56C417.166,1257.7 420.594,1264.21 426.721,1266.11Z" style="fill:rgb(247,227,0);fill-rule:nonzero;"/>
            <path d="M448.768,1273.44C451.459,1274.27 454.317,1272.76 455.151,1270.07C455.984,1267.37 454.478,1264.51 451.787,1263.68C449.095,1262.84 446.238,1264.35 445.404,1267.05C444.571,1269.74 446.077,1272.6 448.768,1273.44Z" style="fill:rgb(247,227,0);fill-rule:nonzero;"/>
            <path d="M399.829,1243.77C403.618,1244.95 407.642,1242.82 408.815,1239.03C409.989,1235.24 407.869,1231.21 404.079,1230.04C400.29,1228.86 396.267,1230.98 395.093,1234.78C393.919,1238.57 396.04,1242.6 399.829,1243.77Z" style="fill:rgb(247,227,0);fill-rule:nonzero;"/>
            <path d="M436.068,1298.36C438.577,1299.6 441.606,1298.56 442.826,1296.05L504.605,1171.3C505.848,1168.79 504.808,1165.76 502.299,1164.53C499.79,1163.29 496.761,1164.33 495.54,1166.84L433.762,1291.6C432.519,1294.11 433.558,1297.14 436.068,1298.36Z" style="fill:url(#_Linear1);fill-rule:nonzero;"/>
            <path d="M526.442,1201.44C527.685,1198.93 526.646,1195.9 524.136,1194.68L497.237,1181.43C494.728,1180.18 491.699,1181.22 490.478,1183.73C489.235,1186.24 490.275,1189.27 492.784,1190.49L519.683,1203.72C522.17,1204.97 525.199,1203.95 526.442,1201.44Z" style="fill:rgb(113,217,206);fill-rule:nonzero;"/>
            <path d="M515.524,1223.64C516.767,1221.13 515.727,1218.1 513.218,1216.88L486.318,1203.66C483.809,1202.41 480.78,1203.45 479.56,1205.96C478.316,1208.47 479.356,1211.5 481.865,1212.72L508.765,1225.95C511.251,1227.17 514.28,1226.15 515.524,1223.64Z" style="fill:rgb(113,217,206);fill-rule:nonzero;"/>
            <path d="M504.606,1245.85C505.849,1243.34 504.809,1240.31 502.3,1239.09L475.401,1225.86C472.891,1224.62 469.862,1225.66 468.642,1228.17C467.398,1230.68 468.438,1233.71 470.947,1234.93L497.847,1248.16C500.333,1249.38 503.362,1248.34 504.606,1245.85Z" style="fill:rgb(113,217,206);fill-rule:nonzero;"/>
            <path d="M493.687,1268.06C494.931,1265.55 493.891,1262.52 491.382,1261.29L464.482,1248.07C461.973,1246.82 458.944,1247.86 457.723,1250.37C456.48,1252.88 457.52,1255.91 460.029,1257.13L486.928,1270.36C489.415,1271.58 492.444,1270.54 493.687,1268.06Z" style="fill:rgb(113,217,206);fill-rule:nonzero;"/>
            <path d="M482.769,1290.26C484.012,1287.75 482.972,1284.72 480.463,1283.5L453.564,1270.27C451.054,1269.03 448.025,1270.07 446.805,1272.58C445.562,1275.09 446.601,1278.12 449.11,1279.34L476.01,1292.57C478.497,1293.79 481.526,1292.75 482.769,1290.26Z" style="fill:rgb(113,217,206);fill-rule:nonzero;"/>
            <path d="M467.739,1313.94C470.248,1315.18 473.277,1314.14 474.498,1311.63L537.248,1184C538.491,1181.49 537.452,1178.46 534.943,1177.24C532.433,1176 529.404,1177.04 528.184,1179.55L465.433,1307.18C464.19,1309.69 465.23,1312.72 467.739,1313.94Z" style="fill:rgb(247,227,0);fill-rule:nonzero;"/>
            <path d="M481.613,1303.4L466.719,1302.28L467.52,1291.61L482.414,1292.73C485.343,1292.95 487.588,1295.51 487.364,1298.49C487.097,1301.37 484.541,1303.62 481.613,1303.4Z" style="fill:rgb(207,199,255);fill-rule:nonzero;"/>
            <path d="M453.322,1328.56L454.442,1313.65L465.095,1314.45L463.975,1329.36C463.755,1332.29 461.199,1334.54 458.221,1334.32C455.292,1334.1 453.102,1331.49 453.322,1328.56Z" style="fill:rgb(207,199,255);fill-rule:nonzero;"/>
            <path d="M437.164,1327.34L438.284,1312.43L448.937,1313.24L447.817,1328.14C447.597,1331.08 445.042,1333.32 442.063,1333.1C439.185,1332.88 436.944,1330.27 437.164,1327.34Z" style="fill:rgb(207,199,255);fill-rule:nonzero;"/>
            <path d="M423.655,1299.03L438.549,1300.15L439.351,1289.49L424.456,1288.37C421.528,1288.15 418.926,1290.34 418.702,1293.32C418.486,1296.2 420.727,1298.81 423.655,1299.03Z" style="fill:rgb(207,199,255);fill-rule:nonzero;"/>
            <path d="M450.957,1323.55C438.436,1322.61 429,1311.69 429.946,1299.1L431.241,1281.87L476.681,1285.29L475.386,1302.52C474.44,1315.11 463.478,1324.5 450.957,1323.55Z" style="fill:rgb(207,199,255);fill-rule:nonzero;"/>
            <path d="M451.291,1319.1C441.547,1318.37 434.216,1309.84 434.949,1300.09L435.956,1286.69L471.298,1289.35L470.288,1302.8C469.555,1312.55 461.036,1319.84 451.291,1319.1Z" style="fill:rgb(247,227,0);fill-rule:nonzero;"/>
            <path d="M452.727,1300C471.019,1301.38 486.963,1287.65 488.339,1269.34C489.715,1251.03 476.001,1235.07 457.709,1233.69C439.417,1232.32 423.473,1246.04 422.097,1264.35C420.722,1282.67 434.435,1298.63 452.727,1300Z" style="fill:rgb(207,199,255);fill-rule:nonzero;"/>
            <path d="M478.613,1256.16C485.724,1256.69 491.922,1251.36 492.456,1244.24C492.991,1237.12 487.66,1230.92 480.55,1230.38C473.439,1229.85 467.242,1235.18 466.707,1242.3C466.172,1249.42 471.503,1255.62 478.613,1256.16Z" style="fill:rgb(207,199,255);fill-rule:nonzero;"/>
            <path d="M433.629,1252.77C440.74,1253.31 446.937,1247.97 447.472,1240.85C448.007,1233.73 442.676,1227.53 435.566,1227C428.455,1226.46 422.257,1231.8 421.723,1238.91C421.188,1246.03 426.519,1252.24 433.629,1252.77Z" style="fill:rgb(207,199,255);fill-rule:nonzero;"/>
            <path d="M453.739,1286.51C457.28,1286.77 460.367,1284.12 460.633,1280.57C460.9,1277.03 458.245,1273.94 454.704,1273.67C451.162,1273.4 448.076,1276.06 447.809,1279.61C447.543,1283.15 450.198,1286.24 453.739,1286.51Z" style="fill:rgb(247,227,0);fill-rule:nonzero;"/>
            <path d="M452.127,1314.76L542.694,1262.42L542.694,1340.32L452.776,1392.7L452.127,1314.76Z" style="fill:rgb(138,214,206);fill-rule:nonzero;"/>
            <path d="M362.143,1261.2L452.731,1313.5L452.798,1392.66L361.842,1340.04L362.143,1261.2Z" style="fill:rgb(114,189,181);fill-rule:nonzero;"/>
            <path d="M452.025,1313.71L542.694,1261.34L564.001,1292.99L474.016,1345.33L452.025,1313.71Z" style="fill:rgb(184,239,233);fill-rule:nonzero;"/>
            <path d="M361.842,1261.05L453.047,1313.62L436.291,1347.9L346.06,1295.98L361.842,1261.05Z" style="fill:rgb(103,163,156);fill-rule:nonzero;"/>
        </g>
        <g transform="matrix(1,0,0,1,7.45457,-22.0043)">
            <rect x="297.612" y="1134.77" width="291.866" height="291.866" style="fill:none;"/>
        </g>
    </g>
    <defs>
        <linearGradient id="_Linear1" x1="0" y1="0" x2="1" y2="0" gradientUnits="userSpaceOnUse" gradientTransform="matrix(-65.931,133.98,-133.98,-65.931,502.136,1164.44)"><stop offset="0" style="stop-color:rgb(207,199,255);stop-opacity:1"/><stop offset="0.19" style="stop-color:rgb(208,194,252);stop-opacity:1"/><stop offset="0.42" style="stop-color:rgb(209,178,243);stop-opacity:1"/><stop offset="0.68" style="stop-color:rgb(212,152,229);stop-opacity:1"/><stop offset="0.96" style="stop-color:rgb(215,117,208);stop-opacity:1"/><stop offset="1" style="stop-color:rgb(216,111,205);stop-opacity:1"/><stop offset="1" style="stop-color:rgb(216,111,205);stop-opacity:1"/></linearGradient>
    </defs>
</svg>
