<?xml version="1.0" encoding="UTF-8" standalone="no"?>
<!DOCTYPE svg PUBLIC "-//W3C//DTD SVG 1.1//EN" "http://www.w3.org/Graphics/SVG/1.1/DTD/svg11.dtd">
<svg width="100%" height="100%" viewBox="0 0 292 292" version="1.1" xmlns="http://www.w3.org/2000/svg" xmlns:xlink="http://www.w3.org/1999/xlink" xml:space="preserve" xmlns:serif="http://www.serif.com/" style="fill-rule:evenodd;clip-rule:evenodd;stroke-linejoin:round;stroke-miterlimit:2;">
    <g transform="matrix(1,0,0,1,-859.581,-1112.76)">
        <g>
            <path d="M915.535,1266.99L1004.35,1216.48L1004.35,1293.45L915.239,1344.88L915.535,1266.99Z" style="fill:rgb(152,85,150);fill-rule:nonzero;"/>
            <path d="M1004.35,1216.48L1093.78,1267.2L1093.78,1345.08L1004.35,1293.45L1004.35,1216.48Z" style="fill:rgb(173,101,171);fill-rule:nonzero;"/>
            <path d="M957.184,1236.28C961.693,1237.68 966.48,1235.15 967.877,1230.63C969.274,1226.12 966.75,1221.32 962.241,1219.92C957.732,1218.52 952.945,1221.05 951.548,1225.57C950.152,1230.08 952.675,1234.88 957.184,1236.28Z" style="fill:rgb(207,199,255);fill-rule:nonzero;"/>
            <path d="M979.169,1248.18C983.678,1249.58 988.466,1247.05 989.862,1242.53C991.259,1238.01 988.736,1233.22 984.227,1231.82C979.718,1230.42 974.93,1232.94 973.534,1237.46C972.137,1241.98 974.66,1246.78 979.169,1248.18Z" style="fill:rgb(207,199,255);fill-rule:nonzero;"/>
            <path d="M1001.56,1260.55C1006.07,1261.94 1010.86,1259.42 1012.26,1254.9C1013.65,1250.38 1011.13,1245.58 1006.62,1244.19C1002.11,1242.79 997.324,1245.31 995.928,1249.83C994.531,1254.35 997.054,1259.15 1001.56,1260.55Z" style="fill:rgb(207,199,255);fill-rule:nonzero;"/>
            <path d="M1018.29,1279.15C1022.79,1280.55 1027.58,1278.02 1028.98,1273.5C1030.37,1268.98 1027.85,1264.19 1023.34,1262.79C1018.83,1261.39 1014.05,1263.92 1012.65,1268.44C1011.25,1272.95 1013.78,1277.75 1018.29,1279.15Z" style="fill:rgb(207,199,255);fill-rule:nonzero;"/>
            <path d="M1055.66,1334.39C1047.02,1323.72 1041.42,1311.56 1036.04,1297.1C1030.7,1282.73 1019.42,1263.59 1007.03,1254.53C1006.97,1254.51 1006.92,1254.43 1006.92,1254.43C1000.15,1249.41 992.246,1246.26 988.011,1244.25C979.733,1240.29 971.248,1237.45 963.096,1230.61C948.928,1218.78 949.96,1203.32 945.666,1191.63C941.455,1179.9 931.197,1174.5 921.988,1173.1C907.563,1170.85 902.402,1177.44 902.835,1183C903.264,1188.34 909.502,1191.95 913.23,1193.8C917.741,1196.03 921.917,1198.23 924.91,1202.01C931.437,1210.29 926.655,1227.78 921.619,1248.11C918.36,1261.34 921.461,1273.08 928.673,1282.06L923.949,1297.34C922.91,1300.7 924.788,1304.27 928.143,1305.31C931.497,1306.35 935.061,1304.47 936.1,1301.11L939.1,1291.41C940.311,1292.2 941.542,1292.93 942.793,1293.6C943.557,1294.04 944.34,1294.42 945.187,1294.83L942.639,1303.07C941.6,1306.43 943.478,1310 946.833,1311.04C950.187,1312.08 953.751,1310.2 954.79,1306.84L957.084,1299.42C959.236,1300.09 961.387,1300.76 963.642,1301.32L961.309,1308.86C960.27,1312.22 962.149,1315.8 965.503,1316.84C968.857,1317.88 972.422,1316 973.461,1312.63L976.185,1303.82C978.518,1304.13 980.851,1304.43 983.096,1304.58L979.979,1314.66C978.94,1318.02 980.819,1321.59 984.173,1322.63C987.528,1323.67 991.092,1321.79 992.131,1318.43L996.561,1304.1C997.521,1303.91 998.481,1303.72 999.378,1303.51C1005.91,1302.13 1007.04,1300.05 1012.27,1300.84C1014.27,1301.11 1015.63,1301.88 1018.05,1304.58C1022.26,1309.36 1028.23,1320.11 1036.49,1329.76C1051.7,1347.41 1071.79,1349.06 1071.79,1349.06C1071.79,1349.06 1064.29,1345.06 1055.66,1334.39Z" style="fill:rgb(113,217,206);fill-rule:nonzero;"/>
            <path d="M953.497,1270.65C956.153,1271.47 958.974,1269.98 959.797,1267.32C960.619,1264.66 959.133,1261.83 956.476,1261.01C953.82,1260.18 950.999,1261.67 950.177,1264.34C949.354,1267 950.84,1269.82 953.497,1270.65Z" style="fill:rgb(247,227,0);fill-rule:nonzero;"/>
            <path d="M979.275,1271.84C985.322,1273.71 991.743,1270.32 993.616,1264.26C995.489,1258.21 992.105,1251.77 986.058,1249.9C980.011,1248.02 973.591,1251.41 971.718,1257.47C969.845,1263.53 973.228,1269.96 979.275,1271.84Z" style="fill:rgb(247,227,0);fill-rule:nonzero;"/>
            <path d="M1001.04,1279.08C1003.69,1279.9 1006.51,1278.41 1007.34,1275.75C1008.16,1273.09 1006.67,1270.26 1004.02,1269.44C1001.36,1268.62 998.539,1270.11 997.716,1272.77C996.894,1275.43 998.38,1278.25 1001.04,1279.08Z" style="fill:rgb(247,227,0);fill-rule:nonzero;"/>
            <path d="M952.738,1249.77C956.478,1250.93 960.449,1248.84 961.607,1245.09C962.765,1241.34 960.673,1237.36 956.933,1236.2C953.193,1235.04 949.222,1237.14 948.063,1240.89C946.905,1244.63 948.998,1248.61 952.738,1249.77Z" style="fill:rgb(247,227,0);fill-rule:nonzero;"/>
            <path d="M988.501,1303.7C990.977,1304.93 993.967,1303.9 995.172,1301.42L1056.15,1178.17C1057.37,1175.69 1056.35,1172.7 1053.87,1171.49C1051.4,1170.26 1048.41,1171.29 1047.2,1173.77L986.225,1297.02C984.998,1299.5 986.024,1302.49 988.501,1303.7Z" style="fill:url(#_Linear1);fill-rule:nonzero;"/>
            <path d="M1077.7,1207.95C1078.93,1205.47 1077.9,1202.48 1075.42,1201.27L1048.87,1188.18C1046.4,1186.95 1043.41,1187.98 1042.2,1190.46C1040.98,1192.94 1042,1195.93 1044.48,1197.14L1071.03,1210.21C1073.48,1211.43 1076.47,1210.43 1077.7,1207.95Z" style="fill:rgb(113,217,206);fill-rule:nonzero;"/>
            <path d="M1066.92,1229.89C1068.15,1227.41 1067.12,1224.42 1064.65,1223.21L1038.1,1210.14C1035.62,1208.91 1032.63,1209.94 1031.43,1212.42C1030.2,1214.9 1031.23,1217.89 1033.7,1219.1L1060.25,1232.17C1062.71,1233.37 1065.7,1232.37 1066.92,1229.89Z" style="fill:rgb(113,217,206);fill-rule:nonzero;"/>
            <path d="M1056.15,1251.82C1057.38,1249.35 1056.35,1246.35 1053.87,1245.15L1027.32,1232.08C1024.85,1230.85 1021.86,1231.88 1020.65,1234.36C1019.43,1236.83 1020.45,1239.83 1022.93,1241.03L1049.48,1254.1C1051.93,1255.31 1054.92,1254.28 1056.15,1251.82Z" style="fill:rgb(113,217,206);fill-rule:nonzero;"/>
            <path d="M1045.37,1273.76C1046.6,1271.28 1045.57,1268.29 1043.1,1267.08L1016.55,1254.01C1014.07,1252.79 1011.08,1253.81 1009.87,1256.29C1008.65,1258.77 1009.67,1261.77 1012.15,1262.97L1038.7,1276.04C1041.15,1277.25 1044.14,1276.22 1045.37,1273.76Z" style="fill:rgb(113,217,206);fill-rule:nonzero;"/>
            <path d="M1034.59,1295.7C1035.82,1293.22 1034.79,1290.23 1032.32,1289.02L1005.77,1275.95C1003.29,1274.72 1000.3,1275.75 999.096,1278.23C997.868,1280.71 998.895,1283.7 1001.37,1284.91L1027.92,1297.98C1030.38,1299.19 1033.37,1298.16 1034.59,1295.7Z" style="fill:rgb(113,217,206);fill-rule:nonzero;"/>
            <path d="M1019.76,1319.09C1022.24,1320.32 1025.23,1319.29 1026.43,1316.81L1088.37,1190.73C1089.59,1188.25 1088.57,1185.25 1086.09,1184.05C1083.61,1182.82 1080.62,1183.84 1079.42,1186.32L1017.48,1312.41C1016.26,1314.89 1017.28,1317.88 1019.76,1319.09Z" style="fill:rgb(247,227,0);fill-rule:nonzero;"/>
            <path d="M1010.28,1243.19L985.013,1239.51C982.862,1239.19 981.36,1237.2 981.66,1235.03L983.892,1219.53C984.207,1217.39 986.195,1215.89 988.375,1216.19L1013.64,1219.87C1015.79,1220.19 1017.3,1222.18 1017,1224.36L1014.76,1239.87C1014.44,1242.02 1012.45,1243.51 1010.28,1243.19Z" style="fill:white;fill-rule:nonzero;"/>
            <path d="M984.039,1240.24C983.088,1239.93 982.276,1239.34 981.662,1238.53C980.877,1237.48 980.541,1236.2 980.741,1234.92L982.958,1219.4C983.345,1216.73 985.817,1214.88 988.483,1215.28L1013.77,1218.96C1016.44,1219.35 1018.3,1221.83 1017.91,1224.49L1015.67,1240C1015.49,1241.29 1014.8,1242.43 1013.76,1243.21C1012.71,1243.99 1011.43,1244.33 1010.15,1244.12L984.879,1240.45C984.577,1240.39 984.304,1240.33 984.039,1240.24ZM1014.04,1220.91C1013.88,1220.86 1013.7,1220.82 1013.52,1220.78L988.226,1217.1C986.591,1216.85 985.036,1218 984.814,1219.64L982.575,1235.16C982.461,1235.95 982.663,1236.75 983.136,1237.4C983.61,1238.04 984.326,1238.48 985.128,1238.57L1010.41,1242.28C1011.21,1242.39 1012.01,1242.19 1012.65,1241.72C1013.3,1241.25 1013.73,1240.53 1013.82,1239.73L1016.06,1224.22C1016.28,1222.75 1015.39,1221.35 1014.04,1220.91Z" style="fill:rgb(113,217,206);fill-rule:nonzero;"/>
            <path d="M1010.91,1243.29L994.11,1240.85C992.284,1240.59 991.025,1238.9 991.305,1237.08L993.738,1220.31C993.995,1218.49 995.683,1217.24 997.502,1217.52L1014.3,1219.96C1016.13,1220.22 1017.38,1221.91 1017.11,1223.73L1014.68,1240.48C1014.42,1242.3 1012.73,1243.56 1010.91,1243.29Z" style="fill:white;fill-rule:nonzero;"/>
            <path d="M993.272,1241.6C991.348,1240.97 990.097,1239.04 990.39,1236.96L992.8,1220.18C992.972,1219.06 993.55,1218.05 994.452,1217.4C995.362,1216.72 996.487,1216.43 997.606,1216.6L1014.4,1219.05C1016.72,1219.37 1018.34,1221.55 1018.02,1223.86L1015.61,1240.64C1015.43,1241.76 1014.86,1242.77 1013.95,1243.42C1013.04,1244.1 1011.92,1244.39 1010.8,1244.22L994.001,1241.77C993.744,1241.74 993.493,1241.68 993.272,1241.6ZM1014.55,1220.98C1014.42,1220.94 1014.28,1220.91 1014.14,1220.89L997.349,1218.43C996.716,1218.34 996.076,1218.5 995.584,1218.87C995.071,1219.24 994.734,1219.81 994.649,1220.45L992.238,1237.22C992.052,1238.53 992.955,1239.74 994.266,1239.93L1011.06,1242.37C1011.7,1242.46 1012.34,1242.3 1012.83,1241.93C1013.34,1241.56 1013.68,1240.98 1013.76,1240.35L1016.18,1223.57C1016.33,1222.43 1015.64,1221.34 1014.55,1220.98Z" style="fill:rgb(113,217,206);fill-rule:nonzero;"/>
            <path d="M998.254,1236.01C997.204,1234.8 996.763,1233.24 996.983,1231.3C997.018,1230.9 997.119,1230.22 997.247,1229.31C997.376,1228.4 997.476,1227.72 997.57,1227.29C997.901,1225.46 998.742,1224.1 1000.11,1223.28C1001.49,1222.44 1003.22,1222.18 1005.31,1222.48C1006.71,1222.67 1007.9,1223.09 1008.9,1223.69C1009.88,1224.31 1010.61,1224.99 1011.05,1225.8C1011.51,1226.58 1011.69,1227.36 1011.62,1228.11C1011.59,1228.25 1011.54,1228.36 1011.41,1228.44C1011.31,1228.53 1011.18,1228.55 1011.06,1228.54L1007.64,1228.05C1007.5,1228.03 1007.39,1227.99 1007.32,1227.92C1007.24,1227.84 1007.17,1227.77 1007.11,1227.65C1006.98,1227.22 1006.77,1226.83 1006.42,1226.47C1006.07,1226.11 1005.56,1225.89 1004.85,1225.8C1003.14,1225.56 1002.14,1226.3 1001.83,1228.06C1001.74,1228.47 1001.65,1229.1 1001.53,1229.94C1001.4,1230.78 1001.33,1231.44 1001.26,1231.86C1001.06,1233.73 1001.82,1234.79 1003.55,1235.04C1004.39,1235.17 1005.12,1235.05 1005.67,1234.69C1006.23,1234.34 1006.58,1233.74 1006.69,1232.87L1006.75,1232.48L1004.78,1232.19C1004.62,1232.16 1004.49,1232.1 1004.39,1231.97C1004.29,1231.83 1004.26,1231.7 1004.29,1231.54L1004.53,1229.83C1004.56,1229.67 1004.62,1229.55 1004.75,1229.44C1004.89,1229.34 1005.02,1229.31 1005.18,1229.34L1010.77,1230.16C1010.93,1230.19 1011.06,1230.25 1011.16,1230.39C1011.27,1230.52 1011.3,1230.65 1011.27,1230.81L1010.89,1233.36C1010.71,1234.59 1010.27,1235.62 1009.56,1236.44C1008.85,1237.26 1007.93,1237.83 1006.82,1238.15C1005.68,1238.46 1004.43,1238.54 1003.01,1238.31C1000.89,1237.98 999.304,1237.21 998.254,1236.01Z" style="fill:rgb(247,227,0);fill-rule:nonzero;"/>
            <path d="M1033.45,1308.68L1018.75,1307.57L1019.54,1297.04L1034.24,1298.14C1037.14,1298.36 1039.35,1300.89 1039.13,1303.83C1038.87,1306.68 1036.34,1308.9 1033.45,1308.68Z" style="fill:rgb(207,199,255);fill-rule:nonzero;"/>
            <path d="M1005.53,1333.54L1006.63,1318.81L1017.15,1319.6L1016.04,1334.33C1015.83,1337.23 1013.3,1339.45 1010.36,1339.23C1007.47,1339.01 1005.31,1336.43 1005.53,1333.54Z" style="fill:rgb(207,199,255);fill-rule:nonzero;"/>
            <path d="M989.582,1332.34L990.688,1317.61L1001.2,1318.4L1000.1,1333.13C999.879,1336.02 997.357,1338.24 994.417,1338.02C991.577,1337.81 989.365,1335.23 989.582,1332.34Z" style="fill:rgb(207,199,255);fill-rule:nonzero;"/>
            <path d="M976.246,1304.37L990.947,1305.48L991.737,1294.94L977.037,1293.83C974.146,1293.61 971.578,1295.78 971.357,1298.73C971.144,1301.57 973.356,1304.15 976.246,1304.37Z" style="fill:rgb(207,199,255);fill-rule:nonzero;"/>
            <path d="M1003.19,1328.59C990.836,1327.66 981.523,1316.87 982.456,1304.43L983.734,1287.41L1028.58,1290.79L1027.31,1307.81C1026.37,1320.25 1015.55,1329.52 1003.19,1328.59Z" style="fill:rgb(207,199,255);fill-rule:nonzero;"/>
            <path d="M1003.52,1324.2C993.906,1323.47 986.671,1315.04 987.394,1305.41L988.387,1292.18L1023.27,1294.8L1022.27,1308.09C1021.55,1317.72 1013.14,1324.92 1003.52,1324.2Z" style="fill:rgb(247,227,0);fill-rule:nonzero;"/>
            <path d="M1004.94,1305.32C1022.99,1306.68 1038.73,1293.12 1040.09,1275.03C1041.45,1256.94 1027.91,1241.18 1009.86,1239.82C991.803,1238.46 976.066,1252.02 974.708,1270.11C973.351,1288.2 986.886,1303.96 1004.94,1305.32Z" style="fill:rgb(207,199,255);fill-rule:nonzero;"/>
            <path d="M1030.5,1262.01C1037.51,1262.54 1043.63,1257.26 1044.16,1250.23C1044.69,1243.2 1039.42,1237.07 1032.41,1236.54C1025.39,1236.01 1019.27,1241.29 1018.74,1248.32C1018.22,1255.35 1023.48,1261.48 1030.5,1262.01Z" style="fill:rgb(207,199,255);fill-rule:nonzero;"/>
            <path d="M986.094,1258.66C993.112,1259.19 999.229,1253.92 999.757,1246.89C1000.28,1239.86 995.023,1233.73 988.005,1233.2C980.987,1232.67 974.87,1237.94 974.342,1244.97C973.814,1252.01 979.076,1258.13 986.094,1258.66Z" style="fill:rgb(207,199,255);fill-rule:nonzero;"/>
            <path d="M1005.94,1291.99C1009.44,1292.26 1012.48,1289.63 1012.75,1286.13C1013.01,1282.63 1010.39,1279.57 1006.89,1279.31C1003.4,1279.05 1000.35,1281.67 1000.09,1285.18C999.826,1288.68 1002.45,1291.73 1005.94,1291.99Z" style="fill:rgb(247,227,0);fill-rule:nonzero;"/>
            <path d="M1004.35,1319.91L1093.74,1268.2L1093.74,1345.16L1004.99,1396.91L1004.35,1319.91Z" style="fill:rgb(202,118,200);fill-rule:nonzero;"/>
            <path d="M915.536,1266.99L1004.97,1318.63L1005.04,1396.83L915.24,1344.88L915.536,1266.99Z" style="fill:rgb(173,101,171);fill-rule:nonzero;"/>
            <path d="M1058.99,1293.3C1059.31,1291.84 1059.4,1290.24 1059.2,1288.56C1058.73,1284.61 1056.79,1280.54 1053.74,1277.12C1050.7,1273.71 1046.89,1271.3 1043.03,1270.37C1039.02,1269.41 1035.38,1270.13 1032.85,1272.4C1030.29,1274.68 1029.16,1278.19 1029.66,1282.29C1030.13,1286.23 1032.07,1290.31 1035.11,1293.72C1038.15,1297.14 1041.96,1299.54 1045.82,1300.47C1049.83,1301.44 1053.47,1300.71 1056,1298.44C1057.5,1297.11 1058.51,1295.34 1058.99,1293.3ZM1032.11,1278.07C1032.49,1276.46 1033.26,1275.1 1034.38,1274.11C1036.36,1272.34 1039.25,1271.82 1042.5,1272.6C1045.92,1273.41 1049.29,1275.55 1052.04,1278.63C1054.78,1281.72 1056.51,1285.32 1056.92,1288.83C1057.32,1292.18 1056.45,1294.98 1054.47,1296.74C1052.5,1298.5 1049.6,1299.03 1046.35,1298.25C1042.93,1297.44 1039.56,1295.3 1036.82,1292.21C1034.07,1289.13 1032.34,1285.52 1031.94,1282.02C1031.76,1280.59 1031.84,1279.27 1032.11,1278.07Z" style="fill:rgb(247,227,0);fill-rule:nonzero;"/>
            <path d="M1057.21,1295.67C1058.55,1289.94 1054.62,1282.79 1047.42,1278.6C1039.12,1273.78 1029.55,1274.72 1026.1,1280.66C1022.64,1286.64 1026.59,1295.42 1034.89,1300.25C1043.2,1305.07 1052.77,1304.13 1056.21,1298.16C1056.7,1297.38 1057.01,1296.52 1057.21,1295.67ZM1027.34,1283.76C1027.5,1283.09 1027.76,1282.43 1028.1,1281.83C1030.93,1276.95 1039.08,1276.41 1046.28,1280.6C1053.48,1284.79 1057.05,1292.16 1054.24,1297.03C1051.41,1301.91 1043.27,1302.46 1036.07,1298.26C1029.76,1294.58 1026.24,1288.5 1027.34,1283.76Z" style="fill:rgb(247,227,0);fill-rule:nonzero;"/>
            <path d="M1056.27,1298.27C1056.31,1298.13 1056.36,1297.95 1056.38,1297.78C1056.99,1294.42 1055.71,1290.93 1052.8,1288.01C1049.98,1285.2 1045.95,1283.19 1041.46,1282.39C1032.01,1280.7 1023.34,1284.84 1022.13,1291.61C1021.52,1294.97 1022.81,1298.46 1025.71,1301.38C1028.53,1304.19 1032.56,1306.2 1037.05,1307L1037.25,1305.89L1037.05,1307C1041.55,1307.8 1046.03,1307.34 1049.65,1305.68C1053.18,1304.05 1055.54,1301.43 1056.27,1298.27ZM1024.45,1291.68C1025.7,1286.35 1033.01,1283.22 1041.05,1284.66C1045.09,1285.39 1048.7,1287.16 1051.16,1289.66C1053.54,1292.03 1054.58,1294.79 1054.13,1297.39C1053.67,1300 1051.73,1302.21 1048.68,1303.63C1045.47,1305.1 1041.51,1305.5 1037.45,1304.79C1033.41,1304.06 1029.81,1302.28 1027.34,1299.79C1024.97,1297.42 1023.92,1294.66 1024.38,1292.05C1024.39,1291.92 1024.41,1291.8 1024.45,1291.68Z" style="fill:rgb(247,227,0);fill-rule:nonzero;"/>
            <path d="M1004.25,1318.87L1093.74,1267.13L1114.77,1298.4L1025.95,1350.1L1004.25,1318.87Z" style="fill:rgb(235,156,233);fill-rule:nonzero;"/>
            <path d="M915.236,1266.84L1005.26,1318.78L988.719,1352.64L899.66,1301.36L915.236,1266.84Z" style="fill:rgb(152,85,150);fill-rule:nonzero;"/>
            <path d="M1081.92,1308.16C1082.39,1309.57 1083.15,1310.98 1084.21,1312.31C1086.67,1315.43 1090.44,1317.87 1094.82,1319.23C1099.21,1320.52 1103.7,1320.59 1107.46,1319.35C1111.4,1318.06 1114.1,1315.55 1115.09,1312.28C1116.08,1309.01 1115.21,1305.41 1112.66,1302.16C1110.2,1299.04 1106.43,1296.59 1102.05,1295.24C1097.68,1293.91 1093.17,1293.87 1089.4,1295.1C1085.46,1296.38 1082.76,1298.89 1081.77,1302.16C1081.2,1304.11 1081.25,1306.14 1081.92,1308.16ZM1112.76,1307.04C1113.28,1308.59 1113.34,1310.16 1112.9,1311.6C1112.13,1314.15 1109.95,1316.12 1106.76,1317.15C1103.43,1318.23 1099.43,1318.18 1095.49,1317.01C1091.56,1315.8 1088.18,1313.63 1086,1310.88C1083.92,1308.25 1083.19,1305.39 1083.96,1302.84C1084.73,1300.29 1086.91,1298.32 1090.1,1297.29C1093.43,1296.21 1097.43,1296.26 1101.37,1297.43C1105.3,1298.64 1108.68,1300.81 1110.86,1303.57C1111.75,1304.7 1112.38,1305.87 1112.76,1307.04Z" style="fill:rgb(247,227,0);fill-rule:nonzero;"/>
            <path d="M1082.18,1305.21C1084.02,1310.78 1091.1,1314.82 1099.43,1314.62C1109.03,1314.4 1116.69,1308.59 1116.51,1301.69C1116.33,1294.79 1108.4,1289.38 1098.81,1289.6C1089.22,1289.84 1081.54,1295.63 1081.7,1302.54C1081.74,1303.47 1081.9,1304.36 1082.18,1305.21ZM1113.86,1299.71C1114.08,1300.36 1114.2,1301.05 1114.22,1301.75C1114.35,1307.37 1107.68,1312.12 1099.35,1312.33C1091.01,1312.53 1084.14,1308.12 1084,1302.47C1083.86,1296.85 1090.53,1292.1 1098.87,1291.9C1106.17,1291.74 1112.34,1295.09 1113.86,1299.71Z" style="fill:rgb(247,227,0);fill-rule:nonzero;"/>
            <path d="M1081.63,1302.48C1081.68,1302.63 1081.74,1302.8 1081.78,1302.94C1083.02,1306.12 1085.91,1308.42 1089.94,1309.38C1093.81,1310.31 1098.28,1309.9 1102.55,1308.24C1111.49,1304.76 1116.71,1296.68 1114.24,1290.25C1113,1287.07 1110.11,1284.77 1106.07,1283.81C1102.21,1282.88 1097.74,1283.29 1093.47,1284.95L1093.88,1286.03L1093.47,1284.95C1089.2,1286.61 1085.64,1289.36 1083.45,1292.67C1081.25,1295.94 1080.62,1299.42 1081.63,1302.48ZM1112.21,1291.44C1113.92,1296.62 1109.32,1303.14 1101.71,1306.12C1097.87,1307.61 1093.9,1307.98 1090.48,1307.18C1087.21,1306.4 1084.89,1304.61 1083.94,1302.12C1082.99,1299.66 1083.48,1296.74 1085.33,1293.97C1087.28,1291.05 1090.48,1288.61 1094.29,1287.1C1098.13,1285.61 1102.1,1285.24 1105.52,1286.05C1108.79,1286.82 1111.11,1288.62 1112.09,1291.1C1112.12,1291.19 1112.16,1291.32 1112.21,1291.44Z" style="fill:rgb(247,227,0);fill-rule:nonzero;"/>
            <path d="M1080,1299.83C1080.43,1301.12 1081.11,1302.3 1082.04,1303.31C1084.37,1305.8 1087.93,1306.86 1092.01,1306.26C1095.94,1305.69 1099.95,1303.65 1103.27,1300.5C1106.6,1297.37 1108.89,1293.48 1109.71,1289.59C1110.55,1285.54 1109.74,1281.95 1107.41,1279.46C1102.7,1274.43 1093.18,1275.68 1086.17,1282.27C1080.59,1287.52 1078.28,1294.63 1080,1299.83ZM1107.29,1283.68C1107.82,1285.26 1107.89,1287.09 1107.45,1289.1C1106.73,1292.55 1104.66,1295.99 1101.66,1298.82C1098.67,1301.65 1095.1,1303.48 1091.63,1303.99C1088.32,1304.47 1085.47,1303.68 1083.67,1301.74C1079.83,1297.62 1081.64,1289.66 1087.72,1283.94C1093.8,1278.23 1101.88,1276.92 1105.71,1281.02C1106.45,1281.77 1106.96,1282.68 1107.29,1283.68Z" style="fill:rgb(113,217,206);fill-rule:nonzero;"/>
            <path d="M1076.67,1296.27C1077.39,1298.46 1078.7,1300.3 1080.53,1301.52C1083.39,1303.41 1087.07,1303.61 1090.9,1302.07C1094.58,1300.61 1098.01,1297.69 1100.54,1293.85C1103.07,1290.02 1104.39,1285.72 1104.28,1281.74C1104.18,1277.59 1102.54,1274.27 1099.69,1272.41C1096.84,1270.53 1093.16,1270.32 1089.33,1271.86C1085.64,1273.33 1082.22,1276.25 1079.69,1280.08C1076.16,1285.52 1075.15,1291.68 1076.67,1296.27ZM1101.47,1278.44C1101.81,1279.46 1102,1280.61 1102.03,1281.84C1102.11,1285.35 1100.93,1289.19 1098.65,1292.62C1096.39,1296.07 1093.35,1298.67 1090.09,1299.97C1086.98,1301.22 1084.03,1301.09 1081.82,1299.64C1077.13,1296.53 1077.06,1288.35 1081.65,1281.37C1083.91,1277.93 1086.95,1275.32 1090.21,1274.03C1093.32,1272.78 1096.27,1272.9 1098.48,1274.36C1099.86,1275.27 1100.88,1276.66 1101.47,1278.44Z" style="fill:rgb(113,217,206);fill-rule:nonzero;"/>
            <path d="M1071.06,1292.58C1071.8,1294.82 1073.13,1296.64 1074.95,1297.84C1080.71,1301.65 1089.67,1298.22 1094.96,1290.18C1100.25,1282.16 1099.86,1272.52 1094.11,1268.74C1091.25,1266.85 1087.58,1266.64 1083.75,1268.18C1080.06,1269.65 1076.64,1272.57 1074.11,1276.4C1071.58,1280.24 1070.25,1284.54 1070.36,1288.52C1070.43,1289.95 1070.65,1291.34 1071.06,1292.58ZM1095.89,1274.76C1097.18,1278.67 1096.25,1284.08 1093.06,1288.92C1088.47,1295.89 1080.92,1299.02 1076.23,1295.93C1074.03,1294.48 1072.77,1291.82 1072.68,1288.45C1072.6,1284.95 1073.78,1281.1 1076.06,1277.67C1078.32,1274.22 1081.36,1271.62 1084.62,1270.32C1087.73,1269.07 1090.68,1269.2 1092.89,1270.65C1094.31,1271.61 1095.32,1273.03 1095.89,1274.76Z" style="fill:rgb(113,217,206);fill-rule:nonzero;"/>
            <path d="M1064.99,1289.63C1066.28,1293.52 1068.78,1296.2 1072.01,1297.18C1075.28,1298.17 1078.87,1297.3 1082.11,1294.74C1085.23,1292.27 1087.69,1288.49 1089.02,1284.11C1091.82,1274.9 1088.72,1265.78 1082.14,1263.78C1078.87,1262.79 1075.28,1263.66 1072.04,1266.22C1068.92,1268.69 1066.46,1272.47 1065.13,1276.85C1063.8,1281.23 1063.73,1285.73 1064.99,1289.53C1064.97,1289.56 1064.98,1289.58 1064.99,1289.63ZM1086.95,1272.06C1088.01,1275.27 1088.03,1279.34 1086.78,1283.45C1085.58,1287.38 1083.41,1290.75 1080.65,1292.93C1078.01,1295.02 1075.17,1295.72 1072.63,1294.97C1070.12,1294.22 1068.17,1292.06 1067.12,1288.9C1067.11,1288.87 1067.11,1288.85 1067.1,1288.82C1066.02,1285.49 1066.07,1281.48 1067.26,1277.52C1068.47,1273.58 1070.64,1270.22 1073.39,1268.04C1076.04,1265.94 1078.88,1265.24 1081.41,1265.99C1084.05,1266.79 1085.95,1269.05 1086.95,1272.06Z" style="fill:rgb(113,217,206);fill-rule:nonzero;"/>
            <path d="M1057.81,1287.7C1059.32,1292.27 1062.41,1295.59 1066.42,1296.3C1073.2,1297.51 1080.08,1290.8 1081.76,1281.31C1082.56,1276.81 1082.08,1272.33 1080.42,1268.7C1078.69,1264.93 1075.88,1262.54 1072.51,1261.96C1069.13,1261.35 1065.68,1262.64 1062.77,1265.57C1059.96,1268.39 1057.98,1272.42 1057.15,1276.93C1056.48,1280.83 1056.77,1284.56 1057.81,1287.7ZM1078.96,1271.28C1079.91,1274.18 1080.11,1277.54 1079.51,1280.92C1078.05,1289.15 1072.35,1295.04 1066.83,1294.04C1061.3,1293.04 1057.96,1285.57 1059.42,1277.34C1060.13,1273.3 1061.9,1269.69 1064.38,1267.19C1066.75,1264.82 1069.5,1263.77 1072.1,1264.23C1074.7,1264.68 1076.9,1266.62 1078.32,1269.69C1078.57,1270.2 1078.77,1270.73 1078.96,1271.28Z" style="fill:rgb(207,199,255);fill-rule:nonzero;"/>
            <path d="M1050.92,1286.75C1051.38,1288.11 1051.96,1289.4 1052.67,1290.57C1054.83,1294.08 1057.91,1296.14 1061.31,1296.33C1064.71,1296.52 1068.01,1294.84 1070.57,1291.58C1073.03,1288.45 1074.53,1284.2 1074.8,1279.63C1075.37,1270.03 1070.22,1261.88 1063.34,1261.5C1056.47,1261.11 1050.41,1268.6 1049.86,1278.17C1049.68,1281.2 1050.06,1284.12 1050.92,1286.75ZM1071.54,1271.81C1072.3,1274.09 1072.66,1276.75 1072.5,1279.53C1072.27,1283.63 1070.94,1287.41 1068.76,1290.19C1066.67,1292.83 1064.08,1294.2 1061.44,1294.05C1058.81,1293.9 1056.37,1292.22 1054.62,1289.38C1052.79,1286.37 1051.9,1282.46 1052.14,1278.36C1052.61,1270.03 1057.57,1263.52 1063.2,1263.84C1066.92,1264.03 1070.03,1267.24 1071.54,1271.81Z" style="fill:rgb(207,199,255);fill-rule:nonzero;"/>
            <path d="M1043.79,1287.23C1044.24,1288.59 1044.82,1289.88 1045.53,1291.05C1047.69,1294.56 1050.77,1296.62 1054.17,1296.81C1057.58,1297 1060.87,1295.32 1063.43,1292.06C1065.89,1288.93 1067.39,1284.68 1067.66,1280.11C1068.23,1270.51 1063.08,1262.36 1056.2,1261.98C1049.34,1261.59 1043.28,1269.08 1042.73,1278.65C1042.54,1281.68 1042.92,1284.6 1043.79,1287.23ZM1064.39,1272.26C1065.15,1274.55 1065.52,1277.21 1065.36,1279.98C1065.12,1284.08 1063.79,1287.87 1061.61,1290.64C1059.52,1293.28 1056.93,1294.65 1054.3,1294.5C1051.66,1294.35 1049.23,1292.68 1047.48,1289.83C1045.65,1286.83 1044.76,1282.91 1044.99,1278.81C1045.46,1270.48 1050.42,1263.98 1056.05,1264.3C1059.78,1264.51 1062.88,1267.69 1064.39,1272.26Z" style="fill:rgb(207,199,255);fill-rule:nonzero;"/>
            <path d="M1080.59,1312.76C1081.96,1316.89 1085.44,1320.99 1090.34,1323.68C1094.38,1325.88 1098.77,1326.85 1102.72,1326.43C1106.83,1325.98 1109.99,1324.06 1111.62,1321.07C1113.26,1318.07 1113.15,1314.38 1111.3,1310.68C1109.53,1307.11 1106.35,1303.93 1102.34,1301.73C1093.91,1297.11 1084.37,1298.28 1081.06,1304.34C1079.71,1306.84 1079.62,1309.81 1080.59,1312.76ZM1109.96,1313.37C1110.75,1315.77 1110.65,1318.07 1109.6,1319.96C1108.33,1322.3 1105.8,1323.76 1102.48,1324.13C1098.97,1324.52 1095.07,1323.65 1091.45,1321.67C1084.15,1317.67 1080.4,1310.39 1083.1,1305.45C1085.8,1300.5 1093.93,1299.75 1101.25,1303.74C1104.87,1305.72 1107.71,1308.53 1109.26,1311.68C1109.54,1312.26 1109.77,1312.81 1109.96,1313.37Z" style="fill:rgb(247,227,0);fill-rule:nonzero;"/>
            <path d="M1062.52,1290.05C1063.51,1285.8 1062.7,1280.49 1059.9,1275.62C1057.62,1271.65 1054.4,1268.51 1050.8,1266.82C1047.07,1265.07 1043.39,1265.02 1040.42,1266.71C1037.46,1268.42 1035.63,1271.61 1035.25,1275.74C1034.89,1279.71 1035.96,1284.08 1038.22,1288.05C1042.99,1296.39 1051.73,1300.4 1057.7,1296.96C1060.2,1295.57 1061.82,1293.06 1062.52,1290.05ZM1037.82,1274.15C1038.4,1271.67 1039.69,1269.78 1041.54,1268.71C1043.82,1267.38 1046.75,1267.46 1049.82,1268.9C1052.98,1270.41 1055.87,1273.2 1057.91,1276.76C1062.05,1284 1061.45,1292.18 1056.58,1294.98C1051.72,1297.79 1044.36,1294.16 1040.24,1286.92C1038.19,1283.34 1037.23,1279.45 1037.55,1275.94C1037.58,1275.31 1037.68,1274.71 1037.82,1274.15Z" style="fill:rgb(207,199,255);fill-rule:nonzero;"/>
        </g>
        <g transform="matrix(1,0,0,1,561.969,-22.0043)">
            <rect x="297.612" y="1134.77" width="291.866" height="291.866" style="fill:none;"/>
        </g>
    </g>
    <defs>
        <linearGradient id="_Linear1" x1="0" y1="0" x2="1" y2="0" gradientUnits="userSpaceOnUse" gradientTransform="matrix(-65.172,132.31,-132.31,-65.172,1053.71,1171.4)"><stop offset="0" style="stop-color:rgb(207,199,255);stop-opacity:1"/><stop offset="0.19" style="stop-color:rgb(208,194,252);stop-opacity:1"/><stop offset="0.42" style="stop-color:rgb(209,178,243);stop-opacity:1"/><stop offset="0.68" style="stop-color:rgb(212,152,229);stop-opacity:1"/><stop offset="0.96" style="stop-color:rgb(215,117,208);stop-opacity:1"/><stop offset="1" style="stop-color:rgb(216,111,205);stop-opacity:1"/><stop offset="1" style="stop-color:rgb(216,111,205);stop-opacity:1"/></linearGradient>
    </defs>
</svg>
