<svg width="565" height="380" viewBox="0 0 565 380" fill="none" xmlns="http://www.w3.org/2000/svg">
<rect x="122.587" y="22.9172" width="339" height="233" rx="24" transform="rotate(6.03194 122.587 22.9172)" fill="white"/>
<path d="M210.546 279.988C219.812 280.967 228.118 274.249 229.097 264.982C230.077 255.715 223.358 247.41 214.092 246.43C204.825 245.451 196.519 252.17 195.54 261.436C194.561 270.703 201.279 279.009 210.546 279.988Z" fill="#736DB4"/>
<path d="M173.047 180.392C182.313 181.372 190.619 174.653 191.598 165.387C192.578 156.12 185.859 147.814 176.593 146.835C167.326 145.856 159.02 152.574 158.041 161.841C157.062 171.107 163.78 179.413 173.047 180.392Z" fill="#F7E300"/>
<path d="M278.345 58.9009C287.231 59.8399 295.196 53.3976 296.135 44.5116C297.074 35.6256 290.632 27.6608 281.746 26.7219C272.86 25.7829 264.895 32.2253 263.956 41.1113C263.017 49.9973 269.459 57.962 278.345 58.9009Z" fill="#70D9CE"/>
<path d="M306.394 166.268L408.229 156.585L376.755 226.794L274.271 237.199L306.394 166.268Z" fill="#F7C100"/>
<path d="M408.226 156.585L469.16 239.544L437.309 310.593L376.752 226.794L408.226 156.585Z" fill="#DBAC05"/>
<path d="M357.018 155.317C360.567 158.441 365.977 158.096 369.101 154.547C372.225 150.998 371.88 145.588 368.331 142.464C364.782 139.34 359.372 139.684 356.248 143.234C353.124 146.783 353.469 152.192 357.018 155.317Z" fill="#CFC7FF"/>
<path d="M372.247 175.177C375.796 178.301 381.206 177.957 384.33 174.408C387.454 170.859 387.11 165.449 383.561 162.325C380.011 159.201 374.602 159.545 371.478 163.094C368.354 166.644 368.698 172.053 372.247 175.177Z" fill="#CFC7FF"/>
<path d="M387.661 195.638C391.21 198.762 396.619 198.417 399.743 194.868C402.868 191.319 402.523 185.909 398.974 182.785C395.425 179.661 390.015 180.006 386.891 183.555C383.767 187.104 384.111 192.513 387.661 195.638Z" fill="#CFC7FF"/>
<path d="M395.338 219.459C398.887 222.583 404.296 222.239 407.42 218.69C410.545 215.141 410.2 209.731 406.651 206.607C403.102 203.483 397.692 203.827 394.568 207.376C391.444 210.926 391.788 216.335 395.338 219.459Z" fill="#CFC7FF"/>
<path d="M406.903 285.167C403.378 271.896 403.23 258.504 404.225 243.111C405.225 227.812 402.737 205.729 395.116 192.389C395.067 192.345 395.061 192.252 395.061 192.252C390.924 184.897 384.986 178.786 381.938 175.219C375.99 168.215 369.397 162.146 364.742 152.567C356.632 135.968 363.896 122.291 364.75 109.87C365.699 97.4426 358.534 88.3063 350.688 83.2572C338.425 75.292 331.009 79.197 329.133 84.442C327.339 89.4937 331.567 95.3374 334.217 98.5542C337.427 102.441 340.344 106.158 341.535 110.831C344.115 121.059 332.592 135.054 319.676 151.535C311.284 162.273 309.32 174.248 312.24 185.395L301.672 197.4C299.348 200.041 299.604 204.068 302.244 206.392C304.885 208.716 308.912 208.46 311.236 205.82L317.945 198.198C318.729 199.417 319.555 200.587 320.426 201.707C320.942 202.427 321.502 203.097 322.112 203.81L316.411 210.286C314.087 212.926 314.344 216.954 316.984 219.278C319.624 221.602 323.652 221.346 325.976 218.705L331.106 212.877C332.8 214.368 334.494 215.859 336.325 217.294L331.107 223.222C328.783 225.862 329.039 229.89 331.68 232.214C334.32 234.538 338.348 234.282 340.672 231.641L346.767 224.717C348.773 225.953 350.78 227.189 352.775 228.237L345.803 236.158C343.479 238.798 343.735 242.826 346.375 245.15C349.016 247.474 353.043 247.217 355.367 244.577L365.277 233.319C366.232 233.54 367.187 233.761 368.091 233.939C374.624 235.357 376.507 233.92 380.969 236.786C382.683 237.853 383.609 239.111 384.723 242.566C386.615 248.653 387.677 260.905 391.275 273.09C397.964 295.423 415.653 305.159 415.653 305.159C415.653 305.159 410.429 298.438 406.903 285.167Z" fill="#71D9CE"/>
<path d="M339.59 185.157C341.681 186.998 344.868 186.795 346.708 184.704C348.549 182.613 348.346 179.426 346.255 177.585C344.164 175.744 340.977 175.947 339.136 178.038C337.296 180.129 337.499 183.317 339.59 185.157Z" fill="#736DB4"/>
<path d="M362.671 196.806C367.431 200.996 374.686 200.534 378.876 195.774C383.065 191.014 382.603 183.759 377.843 179.57C373.084 175.38 365.829 175.842 361.639 180.602C357.45 185.361 357.912 192.616 362.671 196.806Z" fill="#736DB4"/>
<path d="M379.599 212.326C381.69 214.167 384.877 213.964 386.718 211.873C388.558 209.782 388.355 206.595 386.264 204.754C384.173 202.913 380.986 203.116 379.146 205.207C377.305 207.298 377.508 210.485 379.599 212.326Z" fill="#F7E300"/>
<path d="M347.436 165.801C350.38 168.392 354.867 168.106 357.458 165.162C360.049 162.218 359.764 157.731 356.82 155.14C353.876 152.549 349.389 152.834 346.798 155.778C344.206 158.722 344.492 163.209 347.436 165.801Z" fill="#736DB4"/>
<path d="M358.072 229.653C359.833 231.789 362.986 232.076 365.101 230.308L471.238 142.858C473.374 141.099 473.66 137.948 471.89 135.832C470.129 133.697 466.976 133.409 464.86 135.178L358.724 222.627C356.588 224.387 356.302 227.538 358.072 229.653Z" fill="url(#paint0_linear_101:3)"/>
<path d="M478.759 178.854C480.895 177.095 481.181 173.943 479.411 171.828L460.497 149.007C458.736 146.871 455.583 146.583 453.468 148.352C451.332 150.111 451.046 153.263 452.816 155.378L471.739 178.179C473.48 180.305 476.623 180.613 478.759 178.854Z" fill="#71D9CE"/>
<path d="M459.939 194.451C462.075 192.692 462.361 189.541 460.591 187.426L441.668 164.625C439.907 162.489 436.754 162.201 434.639 163.97C432.503 165.729 432.217 168.881 433.987 170.996L452.91 193.797C454.66 195.903 457.804 196.211 459.939 194.451Z" fill="#71D9CE"/>
<path d="M441.117 210.05C443.253 208.291 443.539 205.139 441.769 203.024L422.846 180.223C421.085 178.087 417.932 177.8 415.816 179.568C413.681 181.328 413.395 184.479 415.165 186.594L434.088 209.395C435.837 211.501 438.99 211.789 441.117 210.05Z" fill="#71D9CE"/>
<path d="M422.297 225.646C424.433 223.887 424.719 220.735 422.948 218.62L404.026 195.819C402.265 193.684 399.112 193.396 396.996 195.164C394.861 196.924 394.574 200.075 396.345 202.19L415.268 224.991C417.017 227.097 420.17 227.385 422.297 225.646Z" fill="#71D9CE"/>
<path d="M403.475 241.243C405.61 239.484 405.896 236.332 404.126 234.217L385.203 211.416C383.442 209.281 380.289 208.993 378.174 210.762C376.038 212.521 375.752 215.672 377.522 217.788L396.445 240.589C398.195 242.695 401.348 242.982 403.475 241.243Z" fill="#71D9CE"/>
<path d="M380.347 256.501C382.108 258.637 385.261 258.924 387.376 257.156L495.55 167.511C497.686 165.752 497.972 162.601 496.202 160.485C494.44 158.35 491.288 158.062 489.172 159.831L380.998 249.475C378.863 251.235 378.577 254.386 380.347 256.501Z" fill="#736DB4"/>
<path d="M402.731 183.378L381.14 169.67C379.305 168.498 378.745 166.067 379.91 164.204L388.285 150.987C389.451 149.157 391.88 148.606 393.748 149.777L415.34 163.485C417.175 164.657 417.734 167.088 416.57 168.951L408.179 182.185C407.013 184.015 404.583 184.566 402.731 183.378Z" fill="white"/>
<path d="M379.95 169.935C379.209 169.259 378.707 168.391 378.479 167.396C378.188 166.124 378.407 164.812 379.113 163.727L387.487 150.478C388.929 148.207 391.946 147.532 394.222 148.982L415.831 162.705C418.108 164.155 418.794 167.173 417.352 169.444L408.961 182.677C408.271 183.779 407.17 184.535 405.898 184.821C404.626 185.107 403.314 184.884 402.226 184.174L380.634 170.466C380.379 170.296 380.157 170.124 379.95 169.935ZM415.277 164.591C415.157 164.481 415.003 164.372 414.85 164.264L393.241 150.54C391.848 149.645 389.955 150.057 389.082 151.463L380.692 164.696C380.262 165.374 380.119 166.188 380.288 166.971C380.457 167.755 380.934 168.443 381.629 168.857L403.222 182.598C403.902 183.03 404.716 183.175 405.5 183.009C406.283 182.844 406.969 182.369 407.381 181.675L415.772 168.442C416.57 167.188 416.328 165.55 415.277 164.591Z" fill="#71D9CE"/>
<path d="M403.263 183.732L388.909 174.62C387.346 173.633 386.887 171.577 387.885 170.034L396.967 155.732C397.948 154.174 400.003 153.722 401.55 154.725L415.905 163.838C417.468 164.825 417.927 166.881 416.929 168.424L407.862 182.708C406.881 184.267 404.826 184.719 403.263 183.732Z" fill="white"/>
<path d="M387.834 174.963C386.335 173.595 385.981 171.32 387.1 169.541L396.165 155.224C396.779 154.274 397.719 153.591 398.813 153.362C399.922 153.116 401.068 153.313 402.02 153.931L416.375 163.043C418.362 164.292 418.948 166.935 417.706 168.917L408.642 183.235C408.027 184.184 407.087 184.868 405.994 185.097C404.885 185.343 403.738 185.145 402.786 184.528L388.432 175.415C388.211 175.276 388.006 175.121 387.834 174.963ZM415.719 164.868C415.616 164.774 415.497 164.696 415.378 164.619L401.039 155.489C400.495 155.15 399.847 155.03 399.244 155.172C398.624 155.298 398.082 155.684 397.745 156.226L388.68 170.544C387.975 171.662 388.308 173.13 389.429 173.839L403.783 182.952C404.327 183.291 404.975 183.411 405.578 183.269C406.198 183.143 406.74 182.757 407.077 182.215L416.142 167.898C416.755 166.915 416.563 165.639 415.719 164.868Z" fill="#71D9CE"/>
<path d="M394.677 171.897C394.209 170.369 394.446 168.76 395.439 167.086C395.636 166.731 396.005 166.155 396.495 165.376C396.986 164.596 397.354 164.02 397.617 163.663C398.666 162.134 399.991 161.236 401.581 161.051C403.187 160.85 404.873 161.32 406.657 162.445C407.862 163.2 408.777 164.066 409.448 165.026C410.087 165.987 410.476 166.909 410.552 167.828C410.644 168.73 410.5 169.511 410.119 170.17C410.042 170.289 409.947 170.359 409.799 170.382C409.669 170.421 409.536 170.393 409.434 170.332L406.513 168.482C406.394 168.405 406.308 168.326 406.27 168.229C406.233 168.132 406.195 168.034 406.189 167.903C406.25 167.455 406.213 167.012 406.042 166.542C405.872 166.071 405.49 165.659 404.879 165.291C403.418 164.366 402.195 164.633 401.193 166.11C400.946 166.451 400.609 166.992 400.148 167.705C399.687 168.417 399.352 168.991 399.121 169.347C398.176 170.97 398.434 172.244 399.912 173.185C400.626 173.648 401.343 173.831 401.998 173.737C402.653 173.642 403.21 173.239 403.67 172.494L403.884 172.155L402.203 171.092C402.067 170.999 401.979 170.887 401.938 170.724C401.898 170.561 401.924 170.428 402.017 170.292L402.937 168.835C403.029 168.699 403.141 168.612 403.304 168.572C403.466 168.532 403.6 168.559 403.736 168.652L408.51 171.69C408.646 171.783 408.734 171.895 408.774 172.058C408.815 172.221 408.788 172.354 408.696 172.49L407.315 174.659C406.639 175.71 405.818 176.47 404.834 176.925C403.85 177.38 402.77 177.526 401.625 177.362C400.463 177.181 399.288 176.738 398.081 175.951C396.279 174.777 395.144 173.426 394.677 171.897Z" fill="#736DB4"/>
<path d="M397.128 252.614L384.144 245.58L389.175 236.293L402.159 243.328C404.712 244.711 405.704 247.924 404.297 250.52C402.894 253.005 399.681 253.997 397.128 252.614Z" fill="#CFC7FF"/>
<path d="M361.437 263.851L368.471 250.867L377.758 255.898L370.724 268.882C369.341 271.435 366.128 272.427 363.531 271.02C360.978 269.637 360.054 266.403 361.437 263.851Z" fill="#CFC7FF"/>
<path d="M347.354 256.221L354.388 243.237L363.675 248.268L356.641 261.252C355.258 263.805 352.044 264.796 349.448 263.39C346.939 262.03 345.971 258.773 347.354 256.221Z" fill="#CFC7FF"/>
<path d="M346.605 225.241L359.589 232.276L364.62 222.989L351.636 215.955C349.083 214.572 345.85 215.496 344.443 218.093C343.084 220.601 344.052 223.858 346.605 225.241Z" fill="#CFC7FF"/>
<path d="M361.328 258.381C350.413 252.467 346.315 238.804 352.253 227.845L360.384 212.836L399.995 234.297L391.864 249.305C385.927 260.264 372.243 264.294 361.328 258.381Z" fill="#CFC7FF"/>
<path d="M363.425 254.509C354.931 249.907 351.765 239.254 356.367 230.759L362.685 219.096L393.494 235.787L387.152 247.495C382.55 255.989 371.92 259.111 363.425 254.509Z" fill="#736DB4"/>
<path d="M372.439 237.871C388.385 246.51 408.315 240.587 416.953 224.641C425.592 208.695 419.669 188.765 403.723 180.126C387.777 171.488 367.847 177.411 359.209 193.357C350.57 209.303 356.493 229.232 372.439 237.871Z" fill="#CFC7FF"/>
<path d="M413.507 208.827C419.706 212.185 427.453 209.882 430.811 203.684C434.169 197.485 431.866 189.738 425.668 186.38C419.469 183.022 411.722 185.325 408.364 191.523C405.006 197.722 407.309 205.469 413.507 208.827Z" fill="#CFC7FF"/>
<path d="M374.293 187.581C380.491 190.939 388.239 188.637 391.597 182.438C394.955 176.24 392.652 168.493 386.454 165.135C380.255 161.777 372.508 164.079 369.15 170.278C365.792 176.476 368.095 184.223 374.293 187.581Z" fill="#CFC7FF"/>
<path d="M378.805 226.121C381.892 227.794 385.751 226.647 387.423 223.56C389.096 220.473 387.949 216.614 384.862 214.942C381.775 213.269 377.916 214.416 376.244 217.503C374.572 220.59 375.718 224.449 378.805 226.121Z" fill="#736DB4"/>
<path d="M365.934 250.929L468.785 240.385L437.311 310.594L335.03 321.435L365.934 250.929Z" fill="#E3C10E"/>
<path d="M306.394 166.27L366.951 250.069L335.03 321.436L274.27 237.202L306.394 166.27Z" fill="#DBAC05"/>
<path d="M426.75 249.044C427.644 247.848 428.38 246.43 428.88 244.808C430.064 241.016 429.957 236.502 428.574 232.14C427.19 227.778 424.69 224.024 421.54 221.593C418.27 219.072 414.649 218.24 411.404 219.274C408.133 220.305 405.667 223.04 404.443 226.982C403.259 230.773 403.366 235.288 404.749 239.65C406.132 244.011 408.633 247.766 411.783 250.197C415.052 252.717 418.674 253.549 421.919 252.515C423.833 251.912 425.473 250.715 426.75 249.044ZM408.412 224.143C409.421 222.83 410.673 221.902 412.108 221.456C414.635 220.658 417.497 221.361 420.146 223.407C422.939 225.544 425.147 228.883 426.394 232.819C427.641 236.755 427.748 240.755 426.685 244.121C425.688 247.34 423.74 249.535 421.214 250.333C418.688 251.131 415.826 250.428 413.177 248.383C410.383 246.245 408.175 242.907 406.929 238.971C405.682 235.035 405.574 231.035 406.638 227.668C407.06 226.296 407.669 225.122 408.412 224.143Z" fill="#736DB4"/>
<path d="M424.16 250.479C427.725 245.797 427.059 237.674 422.19 230.898C416.575 223.095 407.442 220.029 401.86 224.042C396.251 228.078 396.275 237.706 401.889 245.51C407.503 253.313 416.637 256.379 422.221 252.34C422.994 251.827 423.627 251.171 424.16 250.479ZM401.727 227.374C402.143 226.825 402.656 226.336 403.212 225.93C407.794 222.639 415.458 225.477 420.327 232.253C425.197 239.028 425.445 247.212 420.889 250.506C416.307 253.797 408.644 250.958 403.774 244.183C399.514 238.242 398.785 231.244 401.727 227.374Z" fill="#736DB4"/>
<path d="M422.233 252.47C422.323 252.351 422.44 252.208 422.532 252.063C424.466 249.249 424.714 245.542 423.253 241.687C421.831 237.965 418.968 234.482 415.189 231.91C407.247 226.495 397.624 226.725 393.751 232.405C391.818 235.219 391.569 238.926 393.03 242.781C394.453 246.503 397.315 249.986 401.094 252.558L401.73 251.619L401.094 252.558C404.873 255.13 409.156 256.544 413.148 256.513C417.039 256.471 420.272 255.05 422.233 252.47ZM395.836 233.415C399.161 229.069 407.125 229.211 413.889 233.811C417.281 236.138 419.849 239.23 421.084 242.522C422.283 245.655 422.113 248.597 420.628 250.788C419.144 252.979 416.472 254.2 413.096 254.243C409.568 254.269 405.784 253.009 402.364 250.705C398.972 248.378 396.404 245.286 395.169 241.995C393.969 238.861 394.14 235.919 395.624 233.728C395.688 233.606 395.749 233.509 395.836 233.415Z" fill="#736DB4"/>
<path d="M366.265 249.942L469.22 239.414L475.655 276.554L373.329 287.334L366.265 249.942Z" fill="#F7E300"/>
<path d="M306.182 166.012L367.225 250.273L338.259 274.391L277.83 191.113L306.182 166.012Z" fill="#F7C100"/>
<path d="M441.638 272C441.488 273.478 441.607 275.085 442.032 276.724C443.004 280.581 445.451 284.356 448.9 287.384C452.38 290.363 456.458 292.271 460.407 292.673C464.531 293.118 468.023 291.929 470.267 289.352C472.511 286.775 473.19 283.138 472.183 279.124C471.212 275.267 468.765 271.492 465.315 268.465C461.863 265.463 457.757 263.578 453.811 263.15C449.687 262.705 446.195 263.894 443.951 266.471C442.636 268.01 441.853 269.886 441.638 272ZM470.285 283.615C470.119 285.245 469.533 286.704 468.542 287.838C466.794 289.848 464 290.748 460.665 290.383C457.178 290.002 453.54 288.319 450.416 285.633C447.321 282.925 445.115 279.56 444.252 276.153C443.425 272.903 443.927 269.994 445.676 267.984C447.424 265.975 450.218 265.075 453.553 265.44C457.04 265.821 460.678 267.504 463.801 270.189C466.897 272.898 469.103 276.262 469.966 279.67C470.312 281.07 470.409 282.392 470.285 283.615Z" fill="#736DB4"/>
<path d="M443.08 269.418C442.487 275.252 447.298 281.841 454.999 285.07C463.859 288.803 473.241 286.643 475.897 280.273C478.553 273.904 473.517 265.722 464.658 261.989C455.795 258.282 446.416 260.415 443.735 266.783C443.389 267.648 443.171 268.527 443.08 269.418ZM474.287 277.381C474.217 278.069 474.045 278.747 473.774 279.388C471.599 284.572 463.56 286.173 455.859 282.944C448.158 279.715 443.681 272.877 445.858 267.668C448.033 262.484 456.071 260.883 463.772 264.112C470.509 266.96 474.779 272.542 474.287 277.381Z" fill="#736DB4"/>
<path d="M443.692 266.702C443.677 266.855 443.659 267.033 443.643 267.186C443.477 270.592 445.175 273.879 448.47 276.402C451.62 278.833 455.872 280.295 460.455 280.53C470.057 281.018 478.13 275.792 478.496 268.906C478.662 265.5 476.964 262.212 473.669 259.69C470.519 257.259 466.267 255.796 461.684 255.562L461.618 256.713L461.684 255.562C457.101 255.327 452.722 256.374 449.365 258.503C446.014 260.581 444.019 263.492 443.692 266.702ZM476.154 269.156C475.602 274.582 468.729 278.644 460.559 278.25C456.437 278.036 452.656 276.751 449.862 274.613C447.188 272.565 445.804 269.979 445.946 267.317C446.086 264.681 447.726 262.222 450.557 260.451C453.526 258.592 457.453 257.679 461.552 257.864C465.674 258.078 469.455 259.364 472.249 261.501C474.923 263.549 476.307 266.135 476.19 268.8C476.18 268.902 476.167 269.029 476.154 269.156Z" fill="#736DB4"/>
<path d="M443.286 263.623C443.149 264.973 443.294 266.326 443.728 267.632C444.841 270.859 447.657 273.282 451.634 274.407C455.462 275.492 459.961 275.28 464.285 273.764C468.606 272.274 472.295 269.664 474.629 266.453C477.055 263.097 477.783 259.49 476.67 256.263C474.424 249.754 465.209 246.989 456.113 250.13C448.857 252.634 443.841 258.172 443.286 263.623ZM474.842 260.066C474.673 261.722 473.985 263.427 472.761 265.079C470.695 267.931 467.4 270.221 463.504 271.575C459.609 272.928 455.598 273.138 452.222 272.176C448.995 271.256 446.716 269.377 445.864 266.871C444.039 261.538 448.95 255.012 456.845 252.289C464.74 249.567 472.658 251.685 474.485 256.993C474.848 257.982 474.948 259.022 474.842 260.066Z" fill="#71D9CE"/>
<path d="M441.696 259.01C441.463 261.302 441.908 263.509 443.081 265.379C444.923 268.269 448.199 269.966 452.327 270.129C456.298 270.301 460.621 269.043 464.501 266.581C468.38 264.119 471.349 260.741 472.882 257.062C474.481 253.235 474.342 249.541 472.498 246.676C470.655 243.787 467.379 242.089 463.252 241.927C459.281 241.754 454.958 243.013 451.078 245.475C445.625 248.986 442.186 254.195 441.696 259.01ZM471.659 252.897C471.55 253.966 471.255 255.095 470.779 256.23C469.42 259.463 466.77 262.488 463.279 264.681C459.81 266.901 455.963 268.028 452.453 267.877C449.095 267.741 446.45 266.417 445.03 264.187C442.014 259.428 445.299 251.938 452.343 247.456C455.812 245.236 459.659 244.109 463.169 244.26C466.527 244.396 469.172 245.72 470.592 247.95C471.479 249.352 471.848 251.037 471.659 252.897Z" fill="#71D9CE"/>
<path d="M438.077 253.338C437.839 255.682 438.309 257.892 439.485 259.736C443.189 265.569 452.786 266.108 460.904 260.938C469.02 255.793 472.608 246.841 468.901 241.033C467.059 238.144 463.783 236.446 459.656 236.283C455.684 236.111 451.361 237.37 447.482 239.832C443.602 242.293 440.633 245.672 439.101 249.35C438.579 250.687 438.209 252.039 438.077 253.338ZM468.062 247.254C467.645 251.355 464.582 255.907 459.685 259.012C452.64 263.494 444.455 263.253 441.436 258.519C440.016 256.29 439.955 253.349 441.25 250.238C442.608 247.005 445.258 243.98 448.75 241.788C452.218 239.567 456.065 238.44 459.576 238.592C462.933 238.727 465.578 240.052 466.998 242.281C467.905 243.737 468.246 245.445 468.062 247.254Z" fill="#71D9CE"/>
<path d="M433.742 248.162C433.327 252.238 434.518 255.705 437.072 257.921C439.649 260.165 443.286 260.844 447.301 259.837C451.157 258.865 454.958 256.421 457.96 252.969C464.284 245.712 465.182 236.126 459.98 231.607C457.403 229.363 453.766 228.684 449.751 229.691C445.895 230.663 442.094 233.107 439.092 236.559C436.09 240.011 434.182 244.089 433.778 248.063C433.75 248.086 433.747 248.111 433.742 248.162ZM460.992 241.13C460.65 244.492 459.01 248.212 456.184 251.45C453.476 254.546 450.114 256.726 446.706 257.589C443.431 258.414 440.55 257.889 438.538 256.166C436.551 254.445 435.649 251.676 435.986 248.365C435.989 248.34 435.991 248.314 435.994 248.289C436.375 244.801 438.057 241.164 440.769 238.042C443.477 234.946 446.839 232.766 450.247 231.904C453.522 231.079 456.403 231.604 458.415 233.327C460.496 235.134 461.314 237.971 460.992 241.13Z" fill="#71D9CE"/>
<path d="M427.967 243.456C427.479 248.245 428.947 252.538 432.316 254.837C438.021 258.712 447.056 255.41 452.474 247.443C455.046 243.664 456.435 239.378 456.404 235.386C456.363 231.238 454.771 227.911 451.928 226C449.089 224.064 445.407 223.818 441.55 225.304C437.828 226.727 434.371 229.592 431.773 233.368C429.561 236.643 428.301 240.17 427.967 243.456ZM454.011 237.15C453.702 240.181 452.507 243.328 450.571 246.168C445.878 253.077 438.26 256.111 433.616 252.936C428.972 249.761 428.982 241.577 433.674 234.668C435.975 231.274 439.068 228.706 442.362 227.446C445.495 226.246 448.437 226.417 450.628 227.901C452.819 229.385 454.04 232.057 454.083 235.433C454.102 236.001 454.07 236.564 454.011 237.15Z" fill="#CFC7FF"/>
<path d="M422.06 239.766C421.914 241.192 421.925 242.609 422.096 243.965C422.631 248.06 424.603 251.195 427.634 252.764C430.666 254.334 434.365 254.144 438.035 252.227C441.569 250.373 444.681 247.113 446.792 243.055C451.238 234.526 449.866 224.992 443.729 221.819C437.618 218.65 429.016 222.999 424.599 231.506C423.193 234.194 422.34 237.015 422.06 239.766ZM447.011 234.584C446.767 236.979 446.016 239.553 444.736 242.022C442.847 245.665 440.08 248.575 436.953 250.212C433.965 251.761 431.037 251.952 428.69 250.736C426.343 249.519 424.798 246.994 424.364 243.681C423.921 240.187 424.708 236.252 426.597 232.61C430.439 225.202 437.631 221.302 442.643 223.897C445.97 225.599 447.499 229.795 447.011 234.584Z" fill="#CFC7FF"/>
<path d="M415.338 237.28C415.193 238.707 415.203 240.123 415.374 241.479C415.91 245.574 417.881 248.709 420.913 250.279C423.944 251.848 427.644 251.659 431.314 249.742C434.848 247.888 437.959 244.627 440.071 240.57C444.517 232.04 443.145 222.506 437.008 219.334C430.896 216.164 422.295 220.513 417.877 229.02C416.472 231.708 415.618 234.529 415.338 237.28ZM440.292 232.073C440.049 234.468 439.298 237.042 438.017 239.511C436.128 243.154 433.361 246.064 430.234 247.701C427.246 249.25 424.318 249.441 421.971 248.224C419.624 247.008 418.08 244.483 417.645 241.17C417.202 237.676 417.989 233.741 419.878 230.099C423.72 222.691 430.912 218.791 435.924 221.385C439.248 223.114 440.78 227.284 440.292 232.073Z" fill="#CFC7FF"/>
<path d="M438.537 275.646C438.096 279.977 439.603 285.149 442.983 289.611C445.777 293.266 449.39 295.951 453.176 297.185C457.113 298.461 460.788 298.011 463.494 295.945C466.227 293.881 467.629 290.472 467.458 286.336C467.296 282.357 465.691 278.153 462.923 274.499C457.115 266.831 447.907 263.989 442.412 268.165C440.152 269.891 438.85 272.564 438.537 275.646ZM465.128 288.236C464.872 290.757 463.839 292.814 462.112 294.105C459.992 295.717 457.079 296.012 453.888 294.993C450.525 293.904 447.319 291.519 444.823 288.228C439.785 281.59 439.33 273.411 443.82 270.007C448.31 266.604 456.046 269.244 461.109 275.885C463.605 279.176 465.054 282.9 465.185 286.414C465.197 287.059 465.188 287.65 465.128 288.236Z" fill="#736DB4"/>
<path d="M431.309 247.528C433.952 244.065 435.381 238.883 434.817 233.292C434.354 228.741 432.695 224.557 430.094 221.539C427.401 218.408 424.059 216.858 420.654 217.181C417.248 217.529 414.273 219.697 412.234 223.298C410.284 226.78 409.473 231.202 409.911 235.75C410.868 245.319 417.209 252.553 424.074 251.862C426.93 251.612 429.438 249.988 431.309 247.528ZM415.233 222.909C416.778 220.878 418.727 219.687 420.859 219.466C423.487 219.193 426.137 220.467 428.346 223.034C430.622 225.71 432.121 229.44 432.529 233.523C433.358 241.817 429.457 249.038 423.866 249.601C418.276 250.165 413.026 243.84 412.222 235.548C411.817 231.44 412.527 227.498 414.255 224.431C414.543 223.868 414.878 223.362 415.233 222.909Z" fill="#CFC7FF"/>
<circle cx="529.518" cy="242.361" r="15.703" transform="rotate(6.03194 529.518 242.361)" fill="#F7E300"/>
<circle cx="151.59" cy="53.5361" r="7.85149" transform="rotate(6.03194 151.59 53.5361)" fill="#736DB4"/>
<circle cx="253.273" cy="117.023" r="7.85149" transform="rotate(6.03194 253.273 117.023)" fill="#D1B1F3"/>
<circle cx="34.3941" cy="75.794" r="7.85149" transform="rotate(6.03194 34.3941 75.794)" fill="#70D9CE"/>
<circle cx="46.6458" cy="240.182" r="12.3098" transform="rotate(6.03194 46.6458 240.182)" fill="white"/>
<path d="M445.28 73.7654L452.922 83.3957V83.3957C440.189 95.7418 428.8 109.402 418.945 124.147L418.064 125.465C417.324 126.573 415.594 126.024 415.628 124.691L415.812 117.509C416.049 108.261 410.051 100.005 401.183 97.3708L393.386 95.0548C392.573 94.8132 392.453 93.7111 393.196 93.3009V93.3009C409.505 84.2896 427.067 77.705 445.28 73.7654V73.7654Z" fill="#FECE25"/>
<path fill-rule="evenodd" clip-rule="evenodd" d="M452.794 83.4744L445.152 73.8441C426.939 77.7837 409.377 84.3684 393.067 93.3796C392.325 93.7898 392.444 94.8919 393.257 95.1335L408.587 99.6866C422.342 92.862 436.887 87.7111 451.884 84.3566L452.794 83.4744Z" fill="#F7C100"/>
<path fill-rule="evenodd" clip-rule="evenodd" d="M448.445 78.06L445.055 73.7887C426.843 77.7282 409.281 84.3129 392.971 93.3242C392.229 93.7344 392.348 94.8365 393.161 95.078L399.32 96.9074C414.746 88.3934 431.291 82.0493 448.445 78.06Z" fill="#E9B702"/>
<path d="M452.882 89.5828L465.096 88.1783L477.029 117.874L481.624 134.479C482.556 137.845 478.817 140.568 475.899 138.648L473.777 137.252C466.456 132.436 456.815 133.13 450.26 138.946L445.218 143.42C444.246 144.282 442.752 143.334 443.118 142.088V142.088C447.492 127.186 450.515 111.92 452.152 96.4765L452.882 89.5828Z" fill="#FECE25"/>
<path fill-rule="evenodd" clip-rule="evenodd" d="M465.248 88.2044L453.035 89.6089L452.304 96.5026C450.668 111.947 447.644 127.212 443.27 142.114C442.904 143.36 444.398 144.308 445.37 143.446L456.661 133.428C459.939 120.893 462.271 108.126 463.637 95.2344L464.368 88.3407L465.262 88.2379L465.248 88.2044Z" fill="#F7C100"/>
<path fill-rule="evenodd" clip-rule="evenodd" d="M465.248 88.2044L453.035 89.6089L452.304 96.5026C450.668 111.947 447.644 127.212 443.27 142.114C442.904 143.36 444.398 144.308 445.37 143.446L449.569 139.72C453.423 125.896 456.121 111.773 457.633 97.498L458.364 90.6043L465.866 89.7416L465.248 88.2044Z" fill="#E9B702"/>
<path fill-rule="evenodd" clip-rule="evenodd" d="M527.388 76.7345C527.389 76.7352 527.391 76.7358 527.393 76.7364L527.392 76.737C532.513 79.6959 529.535 94.4422 520.74 109.676C511.944 124.91 500.662 134.862 495.539 131.905C494.993 131.59 494.539 131.14 494.174 130.57L494.16 130.592L493.608 129.68C484.329 114.336 473.373 100.07 460.942 87.1454L463.724 68.3156L472.285 67.7687C490.747 66.5893 509.236 69.5207 526.422 76.3462C526.764 76.432 527.087 76.561 527.388 76.7345Z" fill="#F7C100"/>
<path fill-rule="evenodd" clip-rule="evenodd" d="M515.384 117.912C517.228 115.396 519.042 112.621 520.76 109.644C529.556 94.4093 532.534 79.6619 527.411 76.7046C527.224 76.5965 527.029 76.5057 526.825 76.4317L526.853 76.3825C509.759 69.4896 491.335 66.5213 472.94 67.6963L463.743 68.2839L453.364 86.2611L454.147 85.357L461.723 86.7885C480.961 90.4232 498.643 99.6511 512.509 113.279C512.811 113.445 513.094 113.639 513.358 113.862C514.485 114.814 515.149 116.204 515.384 117.912Z" fill="#FECE25"/>
<path fill-rule="evenodd" clip-rule="evenodd" d="M424.6 17.3897C424.599 17.3889 424.598 17.3881 424.597 17.3874L424.597 17.3878C424.596 17.3877 424.596 17.3876 424.596 17.3874C419.474 14.4301 408.191 24.3826 399.395 39.617C390.6 54.8515 387.622 69.5988 392.744 72.5562C393.291 72.872 393.909 73.0406 394.586 73.0712L394.573 73.0958L395.638 73.1174C413.567 73.4808 431.399 75.836 448.808 80.1394L463.724 68.3153L459.917 60.6285C451.707 44.0491 439.923 29.5017 425.418 18.0312C425.173 17.7782 424.9 17.5637 424.6 17.3897Z" fill="#F7C100"/>
<path fill-rule="evenodd" clip-rule="evenodd" d="M425.175 17.6784C439.692 29.0363 451.475 43.5076 459.654 60.0252L463.744 68.284L453.359 86.2718L453.754 85.13L448.726 79.2843C435.96 64.4421 419.129 53.7435 400.395 48.5485C400.099 48.3697 399.789 48.221 399.464 48.1038C398.075 47.6038 396.541 47.7236 394.945 48.3735C396.202 45.5191 397.698 42.5618 399.416 39.5859C408.212 24.3515 419.495 14.399 424.617 17.3563C424.804 17.4645 424.981 17.5884 425.146 17.7275L425.175 17.6784Z" fill="#FECE25"/>
<path fill-rule="evenodd" clip-rule="evenodd" d="M403.027 73.0956C402.782 66.474 405.784 56.5763 411.531 46.6233C418.233 35.015 426.736 26.6772 433.015 24.8558C430.573 21.1515 426.943 18.7001 424.616 17.3562C419.494 14.3989 408.211 24.3514 399.415 39.5858C390.62 54.8203 387.642 69.5676 392.764 72.525C394.116 73.3056 398.077 73.5967 403.027 73.0956Z" fill="#DBAC05" fill-opacity="0.5"/>
<rect x="455.778" y="55.9895" width="26.0907" height="32.3718" rx="13.0453" transform="rotate(30 455.778 55.9895)" fill="#F7C100"/>
<path fill-rule="evenodd" clip-rule="evenodd" d="M467.075 62.5122C460.836 58.9098 452.857 61.0476 449.255 67.2871L446.114 72.7267C442.512 78.9662 444.65 86.9446 450.889 90.547C452.947 91.7349 455.194 92.2986 457.41 92.2969C455.161 88.3939 454.997 83.4312 457.411 79.2496L460.552 73.81C462.966 69.6281 467.347 67.2888 471.852 67.2852C470.745 65.3644 469.133 63.7003 467.075 62.5122Z" fill="#DBAC05"/>
<defs>
<linearGradient id="paint0_linear_101:3" x1="471.781" y1="135.679" x2="358.246" y2="229.854" gradientUnits="userSpaceOnUse">
<stop stop-color="#CFC7FF"/>
<stop offset="0.1867" stop-color="#D0C2FC"/>
<stop offset="0.4212" stop-color="#D1B2F3"/>
<stop offset="0.6812" stop-color="#D498E5"/>
<stop offset="0.9578" stop-color="#D775D0"/>
<stop offset="0.9994" stop-color="#D86FCD"/>
</linearGradient>
</defs>
</svg>
