<?xml version="1.0" encoding="UTF-8" standalone="no"?>
<!DOCTYPE svg PUBLIC "-//W3C//DTD SVG 1.1//EN" "http://www.w3.org/Graphics/SVG/1.1/DTD/svg11.dtd">
<svg width="100%" height="100%" viewBox="0 0 1440 221" version="1.1" xmlns="http://www.w3.org/2000/svg" xmlns:xlink="http://www.w3.org/1999/xlink" xml:space="preserve" xmlns:serif="http://www.serif.com/" style="fill-rule:evenodd;clip-rule:evenodd;stroke-linejoin:round;stroke-miterlimit:2;">
    <g transform="matrix(1,0,0,1,0,-2643.43)">
        <g transform="matrix(1.7489,0,0,1.24925,0,-713.905)">
            <rect x="0" y="2687.48" width="823.375" height="176.734" style="fill:none;"/>
            <clipPath id="_clip1">
                <rect x="0" y="2687.48" width="823.375" height="176.734"/>
            </clipPath>
            <g clip-path="url(#_clip1)">
                <g transform="matrix(0.571788,0,0,0.80048,0,571.467)">
                    <path d="M1159,2720C1251.08,2720 1446,2703.04 1446,2703.04L1446,3048L-6,3048L-6,2741.04C-6,2741.04 140,2747.96 247.5,2763.5C333.5,2775.93 414.438,2783.01 512.5,2777.5C622.453,2771.32 678,2754.5 795,2733.04C956.64,2703.39 994,2720 1159,2720Z" style="fill:rgb(247,227,0);fill-rule:nonzero;"/>
                    <path d="M1214,2745.04C1304.67,2744.31 1446,2754.04 1446,2754.04L1446,3099L-6,3099L-6,2792.04C-6,2792.04 140,2798.96 247.5,2814.5C333.5,2826.93 414.438,2834.01 512.5,2828.5C622.453,2822.32 678,2805.5 795,2784.04C956.64,2754.39 1049.67,2746.35 1214,2745.04Z" style="fill:rgb(228,135,226);fill-rule:nonzero;"/>
                    <g>
                        <path d="M1122.94,2736.03L1143.16,2748.6C1128,2779.38 1116.14,2811.69 1107.8,2844.97L1107.05,2847.95C1106.42,2850.45 1102.91,2850.58 1102.11,2848.13L1094.01,2823.55C1090.62,2813.25 1080.73,2806.51 1069.9,2807.1L1042.21,2808.61C1040.57,2808.7 1039.63,2806.77 1040.72,2805.54C1064.58,2778.5 1092.3,2755.07 1122.94,2736.03Z" style="fill:rgb(254,206,37);fill-rule:nonzero;"/>
                        <path d="M1142.97,2748.82L1122.76,2736.26C1092.12,2755.29 1064.39,2778.73 1040.54,2805.77C1039.45,2807 1040.39,2808.93 1042.02,2808.84L1072.95,2807.15C1093.58,2785.76 1116.74,2766.9 1141.89,2751.02L1142.97,2748.82Z" style="fill:rgb(247,193,0);"/>
                        <path d="M1131.51,2741.79L1122.55,2736.22C1091.91,2755.26 1064.19,2778.69 1040.33,2805.73C1039.24,2806.96 1040.18,2808.89 1041.81,2808.8L1054.24,2808.12C1076.81,2782.57 1102.84,2760.23 1131.51,2741.79Z" style="fill:rgb(233,183,2);"/>
                        <path d="M1147.12,2759.89L1168.47,2749.38L1209.61,2795.71L1233.91,2830.2C1236.04,2833.22 1233.29,2837.26 1229.7,2836.38L1206.26,2830.69C1195.71,2828.12 1184.75,2832.95 1179.53,2842.46L1168.28,2862.97C1167.07,2865.17 1163.72,2864.42 1163.58,2861.91C1161.83,2831.91 1157.38,2802.13 1150.29,2772.93L1147.12,2759.89Z" style="fill:rgb(254,206,37);fill-rule:nonzero;"/>
                        <path d="M1168.77,2749.33L1147.42,2759.84L1150.58,2772.88C1157.68,2802.08 1162.12,2831.86 1163.87,2861.85C1164.02,2864.36 1167.36,2865.12 1168.57,2862.91L1182.62,2837.31C1180.42,2812.34 1176.34,2787.56 1170.42,2763.19L1167.25,2750.15L1168.82,2749.38L1168.77,2749.33Z" style="fill:rgb(247,193,0);"/>
                        <path d="M1168.77,2749.33L1147.42,2759.84L1150.58,2772.88C1157.68,2802.08 1162.12,2831.86 1163.87,2861.85C1164.02,2864.36 1167.36,2865.12 1168.57,2862.91L1173.79,2853.4C1171.8,2825.7 1167.51,2798.21 1160.95,2771.22L1157.78,2758.18L1170.9,2751.73L1168.77,2749.33Z" style="fill:rgb(233,183,2);"/>
                        <path d="M1274.59,2687.96C1285.86,2690.02 1290.06,2718.82 1283.96,2752.31C1277.86,2785.79 1263.78,2811.27 1252.52,2809.22C1251.31,2809 1250.19,2808.48 1249.15,2807.67L1249.14,2807.73L1247.55,2806.43C1220.61,2784.51 1191.33,2765.66 1160.23,2750.2L1153.01,2714.09L1168.25,2707.52C1201.15,2693.35 1236.78,2686.64 1272.57,2687.89C1273.25,2687.82 1273.93,2687.84 1274.59,2687.96Z" style="fill:rgb(247,193,0);"/>
                        <path d="M1145.83,2753.54L1146.67,2751.37L1161.41,2749.05C1198.86,2743.14 1237.12,2748.43 1271.3,2764.23C1271.96,2764.34 1272.6,2764.51 1273.23,2764.74C1275.91,2765.74 1278.02,2767.84 1279.57,2770.8C1281.29,2765.01 1282.78,2758.78 1283.97,2752.24C1290.07,2718.75 1285.88,2689.95 1274.61,2687.89C1274.2,2687.82 1273.78,2687.78 1273.36,2687.78L1273.38,2687.67C1237.71,2686.25 1202.18,2692.84 1169.4,2706.96L1153.03,2714.02L1145.83,2753.54Z" style="fill:rgb(254,206,37);"/>
                        <path d="M1050.37,2647.43C1084.3,2658.88 1115.28,2677.71 1141.07,2702.57L1153.01,2714.09L1133.53,2745.34C1098.98,2748.84 1064.93,2756.17 1032,2767.18L1030.05,2767.83L1030.06,2767.78C1028.8,2768.16 1027.57,2768.26 1026.37,2768.04C1015.1,2765.99 1010.9,2737.18 1017,2703.7C1023.1,2670.21 1037.18,2644.73 1048.44,2646.79C1049.11,2646.91 1049.75,2647.12 1050.37,2647.43Z" style="fill:rgb(247,193,0);"/>
                        <path d="M1145.83,2753.54L1145.81,2751.21L1132.84,2743.84C1099.87,2725.11 1062.2,2716.58 1024.65,2719.32C1023.99,2719.19 1023.33,2719.12 1022.66,2719.11C1019.8,2719.11 1017.08,2720.33 1014.6,2722.55C1015.02,2716.53 1015.82,2710.17 1017.01,2703.63C1023.11,2670.14 1037.19,2644.66 1048.46,2646.72C1048.87,2646.79 1049.27,2646.9 1049.67,2647.05L1049.69,2646.94C1083.57,2658.18 1114.49,2676.87 1140.19,2701.64L1153.03,2714.02L1145.83,2753.54Z" style="fill:rgb(254,206,37);"/>
                        <path d="M1068.67,2654.91C1058.41,2662.32 1048.34,2683.05 1043.7,2708.56C1039.71,2730.43 1040.7,2750.42 1045.47,2762.32C1036.77,2766.46 1029.35,2768.51 1026.38,2767.97C1015.11,2765.92 1010.92,2737.11 1017.01,2703.63C1023.11,2670.14 1037.19,2644.66 1048.46,2646.72C1053.58,2647.65 1061.8,2649.75 1068.67,2654.91Z" style="fill:rgb(219,172,5);fill-opacity:0.5;"/>
                        <g transform="matrix(0.983824,0.17914,-0.17914,0.983824,501.395,-158.89)">
                            <path d="M1181.01,2717.81C1181.01,2706.22 1171.6,2696.81 1160.01,2696.81L1151.48,2696.81C1139.89,2696.81 1130.48,2706.22 1130.48,2717.81L1130.48,2738.44C1130.48,2750.03 1139.89,2759.44 1151.48,2759.44L1160.01,2759.44C1171.6,2759.44 1181.01,2750.03 1181.01,2738.44L1181.01,2717.81Z" style="fill:rgb(247,193,0);"/>
                        </g>
                        <path d="M1151.14,2700.57C1139.73,2698.49 1128.8,2706.06 1126.72,2717.47L1123.03,2737.76C1120.95,2749.17 1128.51,2760.11 1139.92,2762.19L1148.31,2763.71C1151.24,2764.25 1154.13,2764.14 1156.86,2763.51C1150.12,2758.99 1146.34,2750.77 1147.88,2742.29L1151.58,2721.99C1153.12,2713.51 1159.56,2707.15 1167.45,2705.3C1165.13,2703.74 1162.46,2702.63 1159.53,2702.1L1151.14,2700.57Z" style="fill:rgb(219,172,5);"/>
                    </g>
                </g>
            </g>
        </g>
        <g transform="matrix(-0.973928,-0.226855,0.226855,-0.973928,149.286,5334.02)">
            <circle cx="379.427" cy="2643.43" r="7.851" style="fill:rgb(209,177,243);"/>
        </g>
    </g>
</svg>
