<?xml version="1.0" encoding="UTF-8" standalone="no"?>
<!DOCTYPE svg PUBLIC "-//W3C//DTD SVG 1.1//EN" "http://www.w3.org/Graphics/SVG/1.1/DTD/svg11.dtd">
<svg width="100%" height="100%" viewBox="0 0 1440 235" version="1.1" xmlns="http://www.w3.org/2000/svg" xmlns:xlink="http://www.w3.org/1999/xlink" xml:space="preserve" xmlns:serif="http://www.serif.com/" style="fill-rule:evenodd;clip-rule:evenodd;stroke-linejoin:round;stroke-miterlimit:2;">
    <g transform="matrix(1,0,0,1,0,-405.42)">
        <g transform="matrix(1,0,0,1.08781,0,-56.1699)">
            <rect x="0" y="424.331" width="1440" height="215.377" style="fill:none;"/>
            <clipPath id="_clip1">
                <rect x="0" y="424.331" width="1440" height="215.377"/>
            </clipPath>
            <g clip-path="url(#_clip1)">
                <g transform="matrix(1,0,0,0.919282,0,51.636)">
                    <path d="M41.832,537.159C-54.462,530.474 -191.478,508.391 -191.478,508.391L-227,-60.836L1879.2,-192.272L1931.22,453.488C1931.22,453.488 1830.31,465.753 1767.83,476.703C1686.66,490.93 1634.5,500.453 1527.12,517.28L1522.97,517.931C1446.49,529.917 1368.65,542.117 1311.3,545.695C1262.4,548.746 1185.61,551.36 1091.25,541.587C995.389,531.657 937.536,520.32 871.894,513.326C806.252,506.333 743.5,505 647,513.326C565.385,520.368 488.433,520.29 316.5,541.587C227.393,552.624 166.188,545.793 41.832,537.159Z" style="fill:rgb(247,227,0);fill-rule:nonzero;"/>
                    <path d="M42.43,483.853C-53.865,477.167 -190.88,455.084 -190.88,455.084L-226.402,-114.143L1879.8,-245.578L1931.82,400.181C1931.82,400.181 1830.9,412.446 1768.43,423.396C1687.26,437.623 1635.1,447.146 1527.72,463.973L1523.57,464.624C1447.09,476.61 1369.24,488.81 1311.9,492.388C1263,495.44 1186.21,498.053 1091.85,488.28C995.987,478.35 938.133,467.013 872.492,460.019C806.85,453.026 777.478,451.966 673.016,468.61C593.895,481.217 463.643,494.695 350.164,495.99C260.382,497.015 166.785,492.486 42.43,483.853Z" style="fill:rgb(228,135,226);fill-rule:nonzero;"/>
                </g>
                <g transform="matrix(1,0,0,0.919282,0,51.636)">
                    <path d="M465.153,521.57L488.633,525.496C486.331,559.734 487.666,594.118 492.614,628.07L493.057,631.113C493.429,633.664 490.233,635.118 488.555,633.161L471.71,613.513C464.653,605.283 452.949,602.809 443.156,607.48L418.124,619.418C416.642,620.124 415.044,618.697 415.579,617.146C427.35,583.06 444.07,550.835 465.153,521.57Z" style="fill:rgb(254,206,37);fill-rule:nonzero;"/>
                    <path d="M488.55,525.776L465.07,521.85C443.987,551.115 427.267,583.34 415.496,617.427C414.96,618.978 416.559,620.405 418.04,619.698L445.997,606.366C456.929,578.733 471.168,552.48 488.385,528.223L488.55,525.776Z" style="fill:rgb(247,193,0);"/>
                    <path d="M475.276,523.636L464.861,521.894C443.778,551.16 427.059,583.384 415.287,617.471C414.752,619.022 416.351,620.449 417.832,619.743L429.067,614.385C440.212,582.16 455.779,551.601 475.276,523.636Z" style="fill:rgb(233,183,2);"/>
                    <path d="M496.598,534.434L512.343,516.585L568.013,543.772L603.617,566.412C606.733,568.393 605.723,573.177 602.071,573.737L578.229,577.391C567.495,579.036 559.198,587.672 557.992,598.454L555.391,621.697C555.112,624.196 551.733,624.772 550.642,622.507C537.609,595.434 522.162,569.589 504.49,545.286L496.598,534.434Z" style="fill:rgb(254,206,37);fill-rule:nonzero;"/>
                    <path d="M512.596,516.424L496.852,534.273L504.743,545.125C522.416,569.428 537.863,595.272 550.896,622.346C551.986,624.611 555.366,624.035 555.645,621.536L558.891,592.517C547.35,570.263 534.149,548.902 519.396,528.614L511.505,517.762L512.659,516.454L512.596,516.424Z" style="fill:rgb(247,193,0);"/>
                    <path d="M512.596,516.424L496.852,534.273L504.743,545.125C522.416,569.428 537.863,595.272 550.896,622.346C551.986,624.611 555.366,624.035 555.645,621.536L556.852,610.748C544.468,585.895 530.034,562.113 513.697,539.647L505.806,528.796L515.478,517.831L512.596,516.424Z" style="fill:rgb(233,183,2);"/>
                    <path d="M587.096,419.402C587.097,419.401 587.098,419.401 587.099,419.401L587.1,419.401C598.301,417.009 613.143,442.052 620.25,475.336C627.356,508.62 624.036,537.54 612.834,539.932C611.638,540.187 610.4,540.13 609.135,539.783L609.144,539.836L607.176,539.244C573.927,529.228 539.668,522.937 505.03,520.486L484.612,489.833L496.204,477.963C521.234,452.33 551.629,432.571 585.196,420.099C585.802,419.777 586.435,419.543 587.096,419.402Z" style="fill:rgb(247,193,0);"/>
                    <path d="M492.985,529.048L492.939,526.725L505.681,518.967C538.068,499.247 575.464,489.581 613.079,491.181C613.73,491.029 614.391,490.94 615.059,490.918C617.916,490.825 620.671,491.96 623.225,494.109C622.613,488.105 621.623,481.769 620.235,475.266C613.128,441.982 598.287,416.939 587.085,419.331C586.675,419.418 586.276,419.541 585.887,419.699L585.863,419.592C552.339,431.849 521.991,451.47 497.053,477.009L484.598,489.763L492.985,529.048Z" style="fill:rgb(254,206,37);"/>
                    <path d="M364.323,467.257C400.057,464.934 435.87,470.557 469.184,483.732L484.613,489.834L478.494,526.152C447.877,542.536 419.175,562.27 392.915,584.99L391.361,586.335L391.348,586.282C390.334,587.116 389.228,587.674 388.032,587.929C376.83,590.321 361.989,565.278 354.882,531.994C347.776,498.71 351.096,469.789 362.298,467.398C362.961,467.256 363.637,467.211 364.323,467.257Z" style="fill:rgb(247,193,0);"/>
                    <path d="M492.986,529.047L492.08,526.908L477.281,525.03C439.663,520.257 401.58,526.706 367.899,543.528C367.242,543.655 366.603,543.843 365.984,544.097C363.338,545.178 361.287,547.339 359.834,550.344C357.94,544.613 356.256,538.426 354.868,531.924C347.762,498.64 351.082,469.719 362.284,467.327C362.693,467.24 363.108,467.189 363.527,467.174L363.505,467.067C399.112,464.564 434.827,470.08 468.021,483.207L484.599,489.763L492.986,529.047Z" style="fill:rgb(254,206,37);"/>
                    <path d="M384.089,467.213C377.422,477.968 376.005,500.966 381.42,526.328C386.062,548.072 394.58,566.18 403.519,575.374C397.05,582.51 390.975,587.227 388.018,587.859C376.816,590.25 361.974,565.207 354.868,531.924C347.762,498.64 351.082,469.719 362.284,467.327C367.374,466.241 375.773,465.057 384.089,467.213Z" style="fill:rgb(219,172,5);fill-opacity:0.5;"/>
                    <g transform="matrix(0.977958,-0.208801,0.208801,0.977958,-90.6539,106.097)">
                        <path d="M507.727,503.428C507.727,491.838 498.317,482.428 486.727,482.428L478.2,482.428C466.61,482.428 457.2,491.838 457.2,503.428L457.2,524.058C457.2,535.648 466.61,545.058 478.2,545.058L486.727,545.058C498.317,545.058 507.727,535.648 507.727,524.058L507.727,503.428Z" style="fill:rgb(247,193,0);"/>
                    </g>
                    <path d="M477.737,478.044C466.395,480.465 459.163,491.623 461.585,502.966L465.893,523.141C468.314,534.483 479.472,541.715 490.815,539.293L499.153,537.513C502.062,536.892 504.701,535.696 506.975,534.07C499.03,532.46 492.4,526.299 490.599,517.866L486.292,497.691C484.491,489.257 488.027,480.926 494.622,476.211C491.882,475.656 488.985,475.642 486.076,476.263L477.737,478.044Z" style="fill:rgb(219,172,5);"/>
                </g>
            </g>
        </g>
        <g transform="matrix(0.973929,0.226854,-0.226854,0.973929,79.0697,-192.214)">
            <circle cx="878.428" cy="588.428" r="7.851" style="fill:rgb(209,177,243);"/>
        </g>
        <g transform="matrix(0.973929,0.226854,-0.226854,0.973929,172.16,-279.406)">
            <circle cx="1186.43" cy="636.428" r="7.851" style="fill:rgb(247,227,0);"/>
        </g>
        <g transform="matrix(-0.973928,-0.226855,0.226855,-0.973928,151.334,1235.96)">
            <circle cx="110.427" cy="617.428" r="7.851" style="fill:rgb(112,217,206);"/>
        </g>
    </g>
</svg>
