<?xml version="1.0" encoding="UTF-8" standalone="no"?>
<!DOCTYPE svg PUBLIC "-//W3C//DTD SVG 1.1//EN" "http://www.w3.org/Graphics/SVG/1.1/DTD/svg11.dtd">
<svg width="100%" height="100%" viewBox="0 0 35 35" version="1.1" xmlns="http://www.w3.org/2000/svg" xmlns:xlink="http://www.w3.org/1999/xlink" xml:space="preserve" xmlns:serif="http://www.serif.com/" style="fill-rule:evenodd;clip-rule:evenodd;stroke-linejoin:round;stroke-miterlimit:2;">
    <g transform="matrix(1,0,0,1,-1259,-1593)">
        <g transform="matrix(1,0,0,0.972222,0,44.25)">
            <path d="M1278.25,1605.6L1274.75,1605.6L1274.75,1602L1278.25,1602L1278.25,1605.6ZM1278.25,1620L1274.75,1620L1274.75,1609.2L1278.25,1609.2L1278.25,1620ZM1276.5,1593C1274.2,1593 1271.93,1593.47 1269.8,1594.37C1267.68,1595.27 1265.75,1596.6 1264.13,1598.27C1260.84,1601.65 1259,1606.23 1259,1611C1259,1615.77 1260.84,1620.35 1264.13,1623.73C1265.75,1625.4 1267.68,1626.73 1269.8,1627.63C1271.93,1628.53 1274.2,1629 1276.5,1629C1281.14,1629 1285.59,1627.1 1288.87,1623.73C1292.16,1620.35 1294,1615.77 1294,1611C1294,1608.64 1293.55,1606.3 1292.67,1604.11C1291.79,1601.93 1290.5,1599.94 1288.87,1598.27C1287.25,1596.6 1285.32,1595.27 1283.2,1594.37C1281.07,1593.47 1278.8,1593 1276.5,1593Z" style="fill:rgb(228,135,226);fill-rule:nonzero;"/>
        </g>
        <rect x="1269.88" y="1598.75" width="13.125" height="24.5" style="fill:rgb(228,135,226);"/>
        <g transform="matrix(1,0,0,1,0,-2)">
            <path d="M1274.91,1615.97L1277.52,1615.97C1277.52,1615.67 1277.53,1615.4 1277.54,1615.18C1277.56,1614.94 1277.6,1614.73 1277.66,1614.53C1277.71,1614.34 1277.81,1614.14 1277.94,1613.96C1278.07,1613.76 1278.26,1613.55 1278.49,1613.32C1278.87,1612.99 1279.24,1612.64 1279.62,1612.27C1280,1611.9 1280.34,1611.51 1280.64,1611.1C1280.94,1610.68 1281.19,1610.24 1281.38,1609.77C1281.57,1609.3 1281.67,1608.78 1281.67,1608.21C1281.67,1607.49 1281.55,1606.84 1281.3,1606.28C1281.06,1605.72 1280.71,1605.25 1280.26,1604.86C1279.81,1604.48 1279.25,1604.19 1278.59,1604C1277.93,1603.79 1277.18,1603.69 1276.35,1603.69C1275.6,1603.69 1274.9,1603.79 1274.26,1603.98C1273.62,1604.17 1273.06,1604.46 1272.59,1604.84C1272.12,1605.21 1271.74,1605.68 1271.46,1606.25C1271.18,1606.81 1271.04,1607.46 1271.03,1608.2L1273.84,1608.2C1273.84,1607.82 1273.91,1607.49 1274.05,1607.22C1274.2,1606.95 1274.39,1606.72 1274.62,1606.55C1274.86,1606.38 1275.12,1606.25 1275.42,1606.18C1275.72,1606.09 1276.03,1606.05 1276.35,1606.05C1276.75,1606.05 1277.11,1606.1 1277.43,1606.2C1277.75,1606.29 1278.02,1606.44 1278.23,1606.63C1278.43,1606.82 1278.58,1607.06 1278.68,1607.35C1278.79,1607.63 1278.84,1607.96 1278.84,1608.33C1278.84,1608.67 1278.77,1609 1278.63,1609.32C1278.5,1609.64 1278.32,1609.95 1278.11,1610.24C1277.88,1610.55 1277.63,1610.84 1277.36,1611.12C1277.09,1611.39 1276.82,1611.66 1276.56,1611.91C1276.18,1612.23 1275.89,1612.52 1275.67,1612.77C1275.45,1613.03 1275.29,1613.3 1275.18,1613.59C1275.07,1613.89 1274.99,1614.23 1274.95,1614.6C1274.92,1614.97 1274.91,1615.43 1274.91,1615.97ZM1274.52,1619.58C1274.52,1620.02 1274.66,1620.39 1274.95,1620.7C1275.24,1620.99 1275.65,1621.14 1276.18,1621.14C1276.71,1621.14 1277.12,1620.99 1277.41,1620.7C1277.72,1620.39 1277.87,1620.02 1277.87,1619.58C1277.87,1619.12 1277.72,1618.74 1277.41,1618.43C1277.12,1618.13 1276.71,1617.98 1276.18,1617.98C1275.65,1617.98 1275.24,1618.13 1274.95,1618.43C1274.66,1618.74 1274.52,1619.12 1274.52,1619.58Z" style="fill:white;fill-rule:nonzero;"/>
        </g>
    </g>
</svg>
