<?xml version="1.0" encoding="UTF-8" standalone="no"?>
<!DOCTYPE svg PUBLIC "-//W3C//DTD SVG 1.1//EN" "http://www.w3.org/Graphics/SVG/1.1/DTD/svg11.dtd">
<svg width="100%" height="100%" viewBox="0 0 1440 1673" version="1.1" xmlns="http://www.w3.org/2000/svg" xmlns:xlink="http://www.w3.org/1999/xlink" xml:space="preserve" xmlns:serif="http://www.serif.com/" style="fill-rule:evenodd;clip-rule:evenodd;stroke-linejoin:round;stroke-miterlimit:2;">
    <g transform="matrix(1,0,0,1,0,-948.127)">
        <g>
            <g transform="matrix(0.973929,0.226854,-0.226854,0.973929,556.193,-194.759)">
                <circle cx="1125.43" cy="2322.43" r="7.851" style="fill:rgb(209,177,243);"/>
            </g>
            <g transform="matrix(0.973929,0.226854,-0.226854,0.973929,354.146,-118.684)">
                <circle cx="693.428" cy="1481.43" r="7.851" style="fill:rgb(209,177,243);"/>
            </g>
            <g transform="matrix(0.973929,0.226854,-0.226854,0.973929,321.437,15.9264)">
                <circle cx="91.428" cy="1406.43" r="7.851" style="fill:rgb(112,217,206);"/>
            </g>
            <g transform="matrix(0.973929,0.226854,-0.226854,0.973929,292.927,-133.994)">
                <circle cx="729.428" cy="1207.43" r="7.851" style="fill:rgb(247,227,0);"/>
            </g>
            <g transform="matrix(0.973929,0.226854,-0.226854,0.973929,282.19,-262.566)">
                <circle cx="1283.43" cy="1096.43" r="7.851" style="fill:rgb(247,227,0);"/>
            </g>
            <g transform="matrix(-0.973928,-0.226855,0.226855,-0.973928,73.547,2343.31)">
                <circle cx="171.427" cy="1167.43" r="7.851" style="fill:rgb(209,177,243);"/>
            </g>
            <g transform="matrix(-0.973928,-0.226855,0.226855,-0.973928,-395.795,4965.37)">
                <circle cx="87.427" cy="2505.43" r="7.851" style="fill:rgb(209,177,243);"/>
            </g>
            <g transform="matrix(-0.973928,-0.226855,0.226855,-0.973928,2220.69,3012.08)">
                <circle cx="1283.43" cy="1378.43" r="7.851" style="fill:rgb(209,177,243);"/>
            </g>
            <g transform="matrix(-0.973928,-0.226855,0.226855,-0.973928,1486.65,2159.71)">
                <circle cx="867.427" cy="994.428" r="7.851" style="fill:rgb(112,217,206);"/>
            </g>
            <g transform="matrix(-0.973928,-0.226855,0.226855,-0.973928,-312.155,4080.99)">
                <circle cx="78.428" cy="2058.43" r="7.851" style="fill:rgb(112,217,206);"/>
            </g>
            <g transform="matrix(-0.973928,-0.226855,0.226855,-0.973928,1961.17,5270.25)">
                <circle cx="1283.43" cy="2522.43" r="7.851" style="fill:rgb(112,217,206);"/>
            </g>
            <g transform="matrix(-0.973928,-0.226855,0.226855,-0.973928,1158.73,3760.03)">
                <circle cx="795.427" cy="1813.43" r="7.851" style="fill:rgb(112,217,206);"/>
            </g>
            <g transform="matrix(-0.973928,-0.226855,0.226855,-0.973928,1280.98,5324.08)">
                <circle cx="946.427" cy="2588.43" r="7.851" style="fill:rgb(247,227,0);"/>
            </g>
            <g transform="matrix(-0.973928,-0.226855,0.226855,-0.973928,163.761,3907.68)">
                <circle cx="306.427" cy="1944.43" r="7.851" style="fill:rgb(247,227,0);"/>
            </g>
            <g transform="matrix(-0.973928,-0.226855,0.226855,-0.973928,-7.59714,4545.99)">
                <circle cx="257.427" cy="2273.43" r="7.851" style="fill:rgb(247,227,0);"/>
            </g>
            <g transform="matrix(-0.973928,-0.226855,0.226855,-0.973928,2123.95,4462.96)">
                <circle cx="1318.43" cy="2109.43" r="7.851" style="fill:rgb(247,227,0);"/>
            </g>
        </g>
        <g transform="matrix(1,0,0,1.02186,0,-20.7227)">
            <rect x="0" y="948.127" width="1440" height="1636.99" style="fill:none;"/>
        </g>
    </g>
</svg>
