<?xml version="1.0" encoding="UTF-8" standalone="no"?>
<!DOCTYPE svg PUBLIC "-//W3C//DTD SVG 1.1//EN" "http://www.w3.org/Graphics/SVG/1.1/DTD/svg11.dtd">
<svg width="300px" height="300px" viewBox="0 0 300 300" version="1.1" xmlns="http://www.w3.org/2000/svg" xmlns:xlink="http://www.w3.org/1999/xlink" xml:space="preserve" xmlns:serif="http://www.serif.com/" style="fill-rule:evenodd;clip-rule:evenodd;stroke-linejoin:round;stroke-miterlimit:2;">
    <g transform="matrix(1,0,0,1,0,-26)">
        <path d="M80.905,268.766C74.844,226.169 65.575,158.27 65.575,158.27C65.575,158.27 56.937,190.37 48.82,203.809C48.044,205.093 37.621,203.804 34.261,199.33C32.666,197.207 32.505,194.349 33.465,191.873C46.47,158.301 49.988,148.873 62.709,117.343C64.311,113.371 65.454,108.043 69.707,107.543C73.432,107.106 77.066,110.527 77.464,114.257C77.943,118.732 78.048,120.152 78.633,125.195C81.046,145.971 83.797,157.427 86.805,178.126C89.671,197.844 90.332,209.042 93.717,228.678C96.282,243.555 98.044,250.34 101.289,266.588C101.854,269.415 99.875,273.276 97.008,273.582C92.037,274.114 89.604,274.876 85.627,275.302C82.663,275.618 81.325,271.717 80.905,268.766Z" style="fill:rgb(202,118,200);fill-rule:nonzero;"/>
    </g>
    <g transform="matrix(1,0,0,1,0,-26)">
        <path d="M137.703,215.35C142.249,215.35 145.934,211.665 145.934,207.12C145.934,202.574 142.249,198.889 137.703,198.889C133.158,198.889 129.473,202.574 129.473,207.12C129.473,211.665 133.158,215.35 137.703,215.35Z" style="fill:rgb(207,199,255);fill-rule:nonzero;"/>
    </g>
    <g transform="matrix(1,0,0,1,0,-26)">
        <path d="M161.309,220.008C165.854,220.008 169.539,216.323 169.539,211.777C169.539,207.232 165.854,203.547 161.309,203.547C156.763,203.547 153.078,207.232 153.078,211.777C153.078,216.323 156.763,220.008 161.309,220.008Z" style="fill:rgb(207,199,255);fill-rule:nonzero;"/>
    </g>
    <g transform="matrix(1,0,0,1,0,-26)">
        <path d="M185.426,224.984C189.971,224.984 193.656,221.299 193.656,216.754C193.656,212.208 189.971,208.523 185.426,208.523C180.88,208.523 177.195,212.208 177.195,216.754C177.195,221.299 180.88,224.984 185.426,224.984Z" style="fill:rgb(207,199,255);fill-rule:nonzero;"/>
    </g>
    <g transform="matrix(1,0,0,1,0,-26)">
        <path d="M206.098,237.298C210.643,237.298 214.328,233.613 214.328,229.068C214.328,224.522 210.643,220.837 206.098,220.837C201.552,220.837 197.867,224.522 197.867,229.068C197.867,233.613 201.552,237.298 206.098,237.298Z" style="fill:rgb(207,199,255);fill-rule:nonzero;"/>
    </g>
    <g transform="matrix(1,0,0,1,0,-26)">
        <path d="M256.184,277.366C245.21,270.029 236.596,260.458 227.537,248.719C218.54,237.043 202.717,222.687 188.745,217.902C188.681,217.902 188.617,217.838 188.617,217.838C180.961,215.159 172.794,214.521 168.328,213.883C159.587,212.607 150.974,212.415 141.531,208.459C125.134,201.633 121.689,187.149 114.415,177.643C107.205,168.072 96.231,166.031 87.363,167.371C73.454,169.412 70.583,176.941 72.561,181.918C74.475,186.703 81.238,188.234 85.194,188.872C89.979,189.638 94.445,190.467 98.273,193.083C106.631,198.825 107.205,216.243 108.354,236.341C109.119,249.42 115.308,259.31 124.496,265.499L124.496,280.875C124.496,284.257 127.239,287 130.621,287C134.002,287 136.746,284.257 136.746,280.875L136.746,271.113C138.086,271.496 139.426,271.815 140.765,272.07C141.595,272.262 142.424,272.389 143.318,272.517L143.318,280.811C143.318,284.193 146.061,286.936 149.443,286.936C152.824,286.936 155.568,284.193 155.568,280.811L155.568,273.346C157.737,273.346 159.906,273.346 162.139,273.219L162.139,280.811C162.139,284.193 164.883,286.936 168.264,286.936C171.646,286.936 174.389,284.193 174.389,280.811L174.389,271.943C176.622,271.56 178.855,271.177 180.961,270.667L180.961,280.811C180.961,284.193 183.704,286.936 187.086,286.936C190.467,286.936 193.211,284.193 193.211,280.811L193.211,266.392C194.04,265.945 194.87,265.499 195.635,265.052C201.25,261.926 201.697,259.693 206.737,258.927C208.651,258.608 210.119,258.927 213.117,260.713C218.349,263.904 226.899,272.07 237.235,278.578C256.248,290.445 275.197,286.234 275.197,286.234C275.197,286.234 267.158,284.703 256.184,277.366Z" style="fill:rgb(113,217,206);fill-rule:nonzero;"/>
    </g>
    <g transform="matrix(1,0,0,1,0,-26)">
        <path d="M144.083,247.953C146.761,247.953 148.932,245.782 148.932,243.104C148.932,240.426 146.761,238.255 144.083,238.255C141.405,238.255 139.234,240.426 139.234,243.104C139.234,245.782 141.405,247.953 144.083,247.953Z" style="fill:rgb(247,227,0);fill-rule:nonzero;"/>
    </g>
    <g transform="matrix(1,0,0,1,0,-26)">
        <path d="M168.137,241.7C174.233,241.7 179.175,236.759 179.175,230.663C179.175,224.567 174.233,219.625 168.137,219.625C162.041,219.625 157.1,224.567 157.1,230.663C157.1,236.759 162.041,241.7 168.137,241.7Z" style="fill:rgb(247,227,0);fill-rule:nonzero;"/>
    </g>
    <g transform="matrix(1,0,0,1,0,-26)">
        <path d="M190.212,242.147C192.89,242.147 195.061,239.976 195.061,237.298C195.061,234.62 192.89,232.449 190.212,232.449C187.534,232.449 185.363,234.62 185.363,237.298C185.363,239.976 187.534,242.147 190.212,242.147Z" style="fill:rgb(247,227,0);fill-rule:nonzero;"/>
    </g>
    <g transform="matrix(1,0,0,1,0,-26)">
        <path d="M137.448,229.004C141.218,229.004 144.275,225.947 144.275,222.177C144.275,218.407 141.218,215.35 137.448,215.35C133.678,215.35 130.621,218.407 130.621,222.177C130.621,225.947 133.678,229.004 137.448,229.004Z" style="fill:rgb(247,227,0);fill-rule:nonzero;"/>
    </g>
    <rect x="0" y="0" width="300" height="300" style="fill:none;"/>
</svg>
