<svg width="207" height="163" viewBox="0 0 207 163" fill="none" xmlns="http://www.w3.org/2000/svg">
<path d="M40.5576 119.419L21.9882 118.462C16.7677 118.203 14.377 114.237 17.1738 110.763L27.4219 98.2515C28.5966 96.8161 28.3111 95.0657 26.6473 94.1712L12.7178 86.4103C8.81661 84.2329 9.73566 79.6264 14.5228 77.4305L30.6441 69.85C32.6621 68.916 33.6001 67.1343 32.9674 65.6833L27.5811 54.0872C25.9665 50.6929 29.9516 46.6291 35.2712 46.1881L53.7327 44.678C55.9885 44.4861 57.9382 43.2269 58.4164 41.5987L62.3765 28.431C63.5447 24.6207 69.4427 22.2475 74.0154 23.7178L90.1384 29.0367C91.9923 29.6648 94.5054 29.1358 96.0397 27.851L108.862 16.665C112.468 13.5296 118.844 13.4322 121.366 16.4655L130.006 27.1506C131.02 28.4647 133.4 28.8688 135.542 28.135L153.251 22.2571C158.309 20.57 163.445 22.7703 163.253 26.5448L162.561 40.043C162.487 41.6428 163.972 42.8578 166.127 42.9698L184.708 43.9806C189.85 44.256 192.319 48.2059 189.444 51.6966L179.196 64.2077C178.021 65.6432 178.307 67.3936 179.97 68.288L193.9 76.0489C197.801 78.2263 196.882 82.8329 192.095 85.0288L175.974 92.6093C173.956 93.5433 173.018 95.3249 173.65 96.776L179.037 108.372C180.651 111.766 176.666 115.83 171.347 116.271L152.885 117.781C150.629 117.973 148.68 119.232 148.201 120.861L144.241 134.028C143.073 137.839 137.175 140.212 132.602 138.742L116.479 133.423C114.625 132.794 112.112 133.323 110.578 134.608L97.6887 145.865C94.0828 149 87.707 149.098 85.1842 146.064L76.545 135.379C75.5311 134.065 73.1502 133.661 71.0082 134.395L53.2995 140.273C48.2415 141.96 43.1055 139.76 43.2972 135.985L43.9897 122.487C44.1982 120.746 42.7131 119.531 40.5576 119.419Z" fill="#F7E300"/>
<path d="M73.1852 60.9728L72.5841 57.9559L61.4157 60.1847L62.0168 63.2016L73.1852 60.9728ZM81.1642 54.9192L81.7413 57.8154L83.7658 57.4114C84.2753 57.3097 84.7427 57.2768 85.1681 57.3128C85.6024 57.3469 85.9911 57.4552 86.3342 57.6377C86.6683 57.822 86.9487 58.0867 87.1755 58.4318C87.4022 58.7769 87.5682 59.2132 87.6732 59.7406C87.757 60.1607 87.7656 60.554 87.6992 60.9204C87.6418 61.285 87.511 61.6085 87.3071 61.8909C87.0995 62.2019 86.8169 62.4627 86.4593 62.6735C86.1017 62.8843 85.6815 63.0379 85.1988 63.1342C84.7698 63.2198 84.364 63.2357 83.9816 63.1819C83.5973 63.1192 83.2524 62.9975 82.9469 62.8168C82.6342 62.6468 82.3752 62.4197 82.1699 62.1354C81.9628 61.8421 81.8218 61.5078 81.747 61.1323L78.0197 61.8762C78.2085 62.8237 78.5556 63.6095 79.061 64.2336C79.5753 64.8559 80.1863 65.3335 80.8938 65.6663C81.6032 66.008 82.3743 66.2166 83.2072 66.292C84.0472 66.3568 84.8829 66.3062 85.7142 66.1403C86.6795 65.9476 87.5529 65.6432 88.3343 65.227C89.1228 64.8001 89.772 64.2802 90.2819 63.6673C90.7935 63.0633 91.1524 62.369 91.3585 61.5843C91.5646 60.7996 91.5768 59.9514 91.3951 59.0396C91.2918 58.5212 91.1313 58.042 90.9136 57.6022C90.6958 57.1623 90.4181 56.7716 90.0806 56.43C89.7448 56.0974 89.3455 55.8192 88.8827 55.5956C88.4289 55.3701 87.9097 55.2135 87.3253 55.1257C87.7456 54.8094 88.1042 54.4637 88.4012 54.0884C88.6964 53.7042 88.9281 53.3048 89.0964 52.8901C89.2647 52.4755 89.3714 52.0545 89.4164 51.6273C89.4596 51.1911 89.4393 50.763 89.3556 50.3429C89.174 49.4311 88.8537 48.6632 88.3948 48.0391C87.943 47.4043 87.3839 46.9071 86.7174 46.5475C86.0528 46.1968 85.2951 45.9856 84.4443 45.9137C83.5918 45.8329 82.6828 45.8888 81.7175 46.0814C80.8236 46.2598 80.0137 46.5562 79.2878 46.9706C78.5707 47.3833 77.9725 47.8791 77.493 48.4581C77.0154 49.046 76.6762 49.6992 76.4755 50.4177C76.2837 51.1345 76.2671 51.8906 76.4256 52.6862L80.1529 51.9424C80.0817 51.5848 80.089 51.2488 80.1751 50.9342C80.2611 50.6196 80.4087 50.3345 80.6181 50.079C80.8202 49.8342 81.0715 49.626 81.3719 49.4545C81.6812 49.2813 82.0236 49.1572 82.399 49.0823C82.8549 48.9913 83.2651 48.9745 83.6297 49.0318C84.0032 49.0874 84.324 49.2047 84.592 49.3835C84.8617 49.5713 85.0823 49.8155 85.2537 50.1158C85.4322 50.4055 85.5598 50.7425 85.6364 51.1269C85.7147 51.5202 85.7297 51.8983 85.6811 52.2612C85.6398 52.6133 85.5305 52.9279 85.3534 53.2049C85.1655 53.5212 84.89 53.7946 84.527 54.0251C84.1711 54.2448 83.7251 54.4082 83.1888 54.5152L81.1642 54.9192ZM109.05 53.4809L108.12 48.8148C107.869 47.5545 107.501 46.4755 107.015 45.5779C106.528 44.6713 105.947 43.9462 105.271 43.4025C104.589 42.8695 103.822 42.5161 102.969 42.3423C102.117 42.1685 101.199 42.1798 100.216 42.376C99.2413 42.5704 98.3938 42.9115 97.6731 43.3992C96.9614 43.8851 96.397 44.5043 95.98 45.2567C95.5559 46.0198 95.2925 46.9135 95.1899 47.9378C95.0855 48.9531 95.1588 50.091 95.41 51.3513L96.3397 56.0174C96.5908 57.2778 96.96 58.3613 97.4473 59.2678C97.9418 60.1636 98.5303 60.878 99.2127 61.411C99.8879 61.9548 100.652 62.3135 101.504 62.4873C102.357 62.661 103.27 62.6507 104.244 62.4563C105.228 62.2601 106.08 61.9181 106.8 61.4304C107.521 60.9427 108.089 60.3182 108.504 59.5568C108.921 58.8044 109.177 57.9214 109.273 56.9079C109.375 55.8836 109.301 54.7413 109.05 53.4809ZM99.7732 53.6593C99.718 53.3822 99.6761 53.1721 99.6476 53.0291C99.6191 52.886 99.5621 52.6 99.4766 52.1709L99.0465 50.0122C98.9022 49.2881 98.8312 48.6517 98.8334 48.1029C98.8445 47.5523 98.9333 47.0885 99.0998 46.7114C99.252 46.3557 99.4694 46.0707 99.7519 45.8563C100.042 45.6312 100.397 45.4767 100.817 45.3929C101.192 45.3179 101.54 45.3136 101.86 45.3799C102.187 45.4355 102.478 45.5679 102.733 45.7771C103.064 46.0365 103.349 46.4165 103.588 46.9171C103.834 47.407 104.039 48.0167 104.203 48.7461L99.7732 53.6593ZM105.408 54.7933C105.552 55.5173 105.62 56.1591 105.61 56.7186C105.608 57.2674 105.529 57.7339 105.374 58.1182C105.223 58.4828 105.003 58.7777 104.713 59.0028C104.422 59.219 104.066 59.369 103.646 59.4528C103.19 59.5438 102.779 59.5329 102.413 59.4201C102.046 59.3073 101.719 59.0891 101.432 58.7654C101.184 58.499 100.96 58.1485 100.762 57.714C100.573 57.2777 100.411 56.7664 100.275 56.18L104.708 51.2803C104.76 51.5395 104.8 51.7406 104.828 51.8837C104.855 52.0177 104.898 52.2323 104.957 52.5273L105.408 54.7933ZM111.342 44.0731L111.548 45.1055C111.649 45.6151 111.826 46.0817 112.078 46.5055C112.328 46.9203 112.647 47.2655 113.037 47.5409C113.419 47.8271 113.867 48.0213 114.38 48.1234C114.901 48.2237 115.484 48.2097 116.128 48.0812C116.771 47.9528 117.31 47.743 117.745 47.4518C118.179 47.1606 118.518 46.8095 118.762 46.3984C119.007 45.9963 119.161 45.5566 119.224 45.0794C119.294 44.5914 119.278 44.0926 119.177 43.5831L118.971 42.5507C118.868 42.0322 118.69 41.5611 118.438 41.1373C118.196 40.7118 117.884 40.3604 117.503 40.0831C117.123 39.8059 116.672 39.6171 116.15 39.5167C115.635 39.4057 115.052 39.4153 114.399 39.5455C113.764 39.6721 113.226 39.8864 112.785 40.1883C112.35 40.4795 112.01 40.8262 111.765 41.2283C111.511 41.6322 111.349 42.0781 111.279 42.5661C111.218 43.0523 111.239 43.5546 111.342 44.0731ZM114.068 44.6025L113.863 43.5701C113.822 43.3645 113.805 43.1634 113.812 42.9667C113.818 42.7612 113.859 42.5717 113.936 42.3983C114.006 42.2357 114.113 42.0981 114.258 41.9855C114.401 41.864 114.593 41.7792 114.835 41.731C115.085 41.6811 115.299 41.6848 115.478 41.742C115.664 41.7886 115.825 41.8727 115.96 41.9943C116.089 42.1266 116.195 42.2867 116.279 42.4744C116.361 42.6532 116.423 42.8454 116.464 43.051L116.669 44.0834C116.71 44.289 116.728 44.4946 116.723 44.7002C116.715 44.8968 116.677 45.0765 116.607 45.2391C116.539 45.4107 116.429 45.5581 116.277 45.6814C116.132 45.794 115.939 45.8743 115.698 45.9225C115.456 45.9706 115.243 45.9715 115.057 45.9249C114.869 45.8694 114.711 45.7755 114.582 45.6431C114.447 45.5215 114.338 45.3713 114.256 45.1925C114.172 45.0048 114.109 44.8081 114.068 44.6025ZM121.521 54.0176L121.729 55.0634C121.83 55.5729 122.007 56.0396 122.259 56.4634C122.511 56.8871 122.831 57.2367 123.221 57.5122C123.601 57.7895 124.052 57.9782 124.574 58.0786C125.096 58.1789 125.679 58.1649 126.322 58.0364C126.966 57.908 127.505 57.6982 127.939 57.407C128.374 57.1158 128.718 56.7683 128.972 56.3644C129.218 55.9622 129.371 55.5181 129.432 55.0319C129.493 54.5457 129.473 54.0478 129.371 53.5383L129.163 52.4925C129.061 51.9829 128.885 51.5163 128.633 51.0925C128.39 50.667 128.078 50.3111 127.695 50.0249C127.315 49.7477 126.864 49.5589 126.342 49.4585C125.829 49.3564 125.246 49.3705 124.594 49.5007C123.959 49.6273 123.42 49.8371 122.976 50.1301C122.542 50.4213 122.202 50.768 121.957 51.1701C121.705 51.5829 121.543 52.0333 121.473 52.5213C121.403 53.0093 121.419 53.508 121.521 54.0176ZM124.25 54.5604L124.041 53.5145C124 53.309 123.983 53.1078 123.991 52.9112C123.998 52.7146 124.036 52.5305 124.104 52.3589C124.173 52.1962 124.285 52.0577 124.439 51.9434C124.591 51.8201 124.788 51.7344 125.029 51.6862C125.27 51.6381 125.48 51.6426 125.659 51.6999C125.845 51.7465 126.006 51.8306 126.142 51.9522C126.27 52.0845 126.376 52.2401 126.458 52.4189C126.54 52.5977 126.601 52.7899 126.642 52.9955L126.851 54.0413C126.893 54.2559 126.92 54.4597 126.931 54.6527C126.941 54.8458 126.916 55.0228 126.855 55.1836C126.796 55.3534 126.69 55.5 126.538 55.6232C126.385 55.7376 126.169 55.8224 125.892 55.8777C125.669 55.9223 125.464 55.9213 125.278 55.8747C125.099 55.8175 124.941 55.7235 124.804 55.593C124.659 55.4732 124.541 55.3247 124.45 55.1477C124.357 54.9618 124.291 54.766 124.25 54.5604ZM119.103 56.4379L123.878 41.1531L121.881 40.6454L117.106 55.9302L119.103 56.4379Z" fill="#E07C6E"/>
<path d="M42.8213 96.4423L45.2261 95.9624L43.7199 88.403L47.0813 87.7321L46.7292 85.9651L43.3678 86.6359L43.2665 86.1274C43.2115 85.8515 43.1968 85.5976 43.2222 85.3654C43.2534 85.1322 43.3288 84.9259 43.4484 84.7467C43.5796 84.5353 43.7768 84.3555 44.04 84.2074C44.3032 84.0593 44.636 83.9451 45.0382 83.8648C45.4117 83.7903 45.7398 83.7427 46.0225 83.7222C46.3051 83.7016 46.5602 83.6925 46.7877 83.6949L46.5685 81.7849C46.3662 81.7894 46.1703 81.7956 45.9807 81.8036C45.7969 81.8104 45.6136 81.8201 45.4309 81.8327C45.2482 81.8452 45.0609 81.8647 44.869 81.891C44.6817 81.9105 44.4874 81.9403 44.2863 81.9804C43.6485 82.1077 43.0876 82.3063 42.6037 82.5761C42.1186 82.8402 41.7271 83.1693 41.4292 83.5633C41.1314 83.9574 40.9317 84.4095 40.8302 84.9197C40.7287 85.4299 40.7392 85.9924 40.8617 86.6073L40.9631 87.1158L38.5152 87.6043L38.8673 89.3713L41.3151 88.8828L42.8213 96.4423ZM49.8305 90.1052L49.8665 90.2863C50.0028 90.9701 50.2264 91.5827 50.5374 92.1241C50.8473 92.6597 51.2342 93.1023 51.6982 93.4519C52.1564 93.8026 52.6825 94.0442 53.2764 94.1766C53.875 94.3021 54.5248 94.2949 55.2258 94.155C55.9211 94.0162 56.5182 93.7746 57.0171 93.4301C57.5149 93.0798 57.9082 92.6548 58.197 92.155C58.4857 91.6552 58.6706 91.0985 58.7514 90.4849C58.8312 89.8655 58.8029 89.2139 58.6666 88.5301L58.6306 88.3491C58.4955 87.671 58.273 87.0641 57.9631 86.5285C57.6521 85.9871 57.2675 85.541 56.8093 85.1903C56.3453 84.8408 55.8163 84.5998 55.2224 84.4674C54.6284 84.335 53.9809 84.3387 53.2799 84.4786C52.5789 84.6185 51.9795 84.8636 51.4817 85.2139C50.9896 85.563 50.5992 85.9875 50.3105 86.4872C50.016 86.9882 49.8288 87.5483 49.7491 88.1677C49.6682 88.7813 49.6954 89.4272 49.8305 90.1052ZM52.2626 89.8081L52.2266 89.6271C52.151 89.2478 52.1168 88.8812 52.1239 88.5272C52.1311 88.1733 52.1893 87.851 52.2987 87.5603C52.4081 87.2696 52.5743 87.0243 52.7974 86.8244C53.0204 86.6246 53.3101 86.4891 53.6663 86.418C54.0283 86.3458 54.3506 86.3591 54.6332 86.4581C54.9158 86.557 55.1633 86.7197 55.3757 86.9462C55.5824 87.1739 55.7569 87.4497 55.8991 87.7739C56.0414 88.098 56.1503 88.4497 56.2258 88.829L56.2619 89.01C56.3398 89.4007 56.3757 89.776 56.3697 90.1356C56.3625 90.4896 56.3066 90.8085 56.2018 91.0923C56.0925 91.383 55.9262 91.6282 55.7032 91.8281C55.4801 92.028 55.1933 92.1629 54.8428 92.2328C54.4808 92.3051 54.1557 92.2923 53.8673 92.1945C53.5847 92.0955 53.3372 91.9328 53.1248 91.7063C52.9135 91.4856 52.7368 91.2132 52.5945 90.889C52.4511 90.5592 52.3405 90.1988 52.2626 89.8081ZM66.5102 81.8383C65.8839 81.9633 65.3368 82.2308 64.8688 82.6409C64.3997 83.0452 64.0282 83.5495 63.7543 84.1539L63.6959 83.9505L63.3383 82.6506L61.1059 83.0961L62.9642 92.4225L65.3603 91.9443L64.244 86.3416C64.3005 86.0554 64.3926 85.7981 64.5203 85.5694C64.648 85.3408 64.8171 85.1398 65.0275 84.9663C65.2011 84.8182 65.4063 84.6936 65.643 84.5925C65.8844 84.4846 66.1602 84.3997 66.4705 84.3378C66.7693 84.2781 67.0865 84.2358 67.422 84.2106C67.7622 84.1786 68.0977 84.1684 68.4286 84.18L68.3063 81.7219C68.1052 81.7023 67.845 81.7004 67.5255 81.7164C67.2107 81.7254 66.8722 81.7661 66.5102 81.8383ZM83.8623 80.634L84.2333 82.4958L85.5348 82.2361C85.8623 82.1708 86.1628 82.1496 86.4363 82.1727C86.7155 82.1947 86.9653 82.2643 87.1859 82.3816C87.4007 82.5001 87.5809 82.6702 87.7267 82.8921C87.8725 83.114 87.9791 83.3944 88.0467 83.7334C88.1005 84.0035 88.1061 84.2563 88.0634 84.4919C88.0265 84.7263 87.9424 84.9343 87.8113 85.1158C87.6779 85.3157 87.4962 85.4834 87.2663 85.6189C87.0364 85.7544 86.7663 85.8531 86.456 85.9151C86.1802 85.9701 85.9194 85.9803 85.6735 85.9457C85.4265 85.9054 85.2048 85.8272 85.0083 85.711C84.8073 85.6018 84.6408 85.4557 84.5088 85.273C84.3757 85.0844 84.285 84.8695 84.237 84.6282L81.8408 85.1063C81.9622 85.7155 82.1853 86.2206 82.5102 86.6218C82.8409 87.0219 83.2336 87.3289 83.6885 87.5428C84.1445 87.7625 84.6402 87.8966 85.1757 87.9451C85.7157 87.9867 86.2529 87.9542 86.7873 87.8476C87.4079 87.7237 87.9693 87.528 88.4716 87.2605C88.9786 86.986 89.3959 86.6518 89.7237 86.2578C90.0526 85.8695 90.2833 85.4231 90.4158 84.9187C90.5483 84.4143 90.5561 83.869 90.4393 83.2828C90.3729 82.9496 90.2697 82.6415 90.1298 82.3588C89.9898 82.076 89.8113 81.8248 89.5943 81.6052C89.3784 81.3914 89.1217 81.2126 88.8242 81.0688C88.5324 80.9239 88.1987 80.8232 87.823 80.7667C88.0932 80.5634 88.3237 80.3412 88.5147 80.0999C88.7044 79.8529 88.8534 79.5961 88.9616 79.3296C89.0698 79.063 89.1384 78.7924 89.1673 78.5178C89.1951 78.2374 89.182 77.9621 89.1282 77.6921C89.0114 77.1059 88.8055 76.6123 88.5105 76.2111C88.2201 75.803 87.8607 75.4834 87.4322 75.2522C87.005 75.0268 86.5179 74.8909 85.9709 74.8447C85.4229 74.7928 84.8386 74.8287 84.218 74.9526C83.6434 75.0673 83.1227 75.2578 82.656 75.5242C82.1951 75.7895 81.8105 76.1082 81.5023 76.4804C81.1952 76.8584 80.9772 77.2783 80.8481 77.7402C80.7249 78.201 80.7142 78.6871 80.8161 79.1985L83.2122 78.7203C83.1664 78.4905 83.1711 78.2744 83.2264 78.0722C83.2817 77.87 83.3767 77.6867 83.5112 77.5224C83.6412 77.3651 83.8027 77.2312 83.9958 77.121C84.1947 77.0096 84.4148 76.9298 84.6561 76.8817C84.9492 76.8232 85.2129 76.8124 85.4473 76.8493C85.6874 76.885 85.8936 76.9604 86.0659 77.0754C86.2393 77.1961 86.3811 77.353 86.4913 77.5461C86.606 77.7323 86.688 77.949 86.7373 78.1961C86.7877 78.4489 86.7972 78.692 86.7661 78.9253C86.7395 79.1516 86.6692 79.3539 86.5553 79.5319C86.4346 79.7353 86.2575 79.9111 86.0241 80.0592C85.7953 80.2004 85.5086 80.3055 85.1638 80.3743L83.8623 80.634ZM103.745 74.587L101.685 74.9981L103.543 84.3245L105.724 83.8893L104.332 76.9074C104.346 76.827 104.364 76.7517 104.386 76.6816C104.408 76.6115 104.437 76.5489 104.474 76.4938C104.525 76.418 104.587 76.3548 104.66 76.3042C104.734 76.2537 104.822 76.2181 104.926 76.1975C105.018 76.1791 105.107 76.1763 105.193 76.189C105.278 76.1959 105.358 76.2247 105.434 76.2753C105.504 76.327 105.568 76.4069 105.625 76.515C105.683 76.623 105.729 76.7661 105.765 76.9442L107.094 83.6158L109.206 83.1944L107.835 76.316C107.821 76.247 107.811 76.1924 107.803 76.1522C107.795 76.112 107.789 76.0861 107.787 76.0746C107.803 76.0057 107.827 75.9442 107.858 75.8902C107.888 75.8305 107.925 75.7753 107.968 75.7248C108.024 75.6719 108.083 75.6271 108.148 75.5904C108.218 75.5525 108.299 75.5244 108.391 75.506C108.477 75.4888 108.563 75.4866 108.649 75.4992C108.74 75.505 108.823 75.5332 108.899 75.5838C108.976 75.6402 109.043 75.7224 109.101 75.8304C109.164 75.9373 109.213 76.0798 109.249 76.258L110.576 82.9209L112.757 82.4858L111.431 75.8314C111.328 75.3142 111.189 74.8878 111.015 74.5522C110.845 74.2097 110.648 73.9412 110.424 73.7469C110.196 73.5595 109.947 73.4387 109.68 73.3846C109.418 73.3293 109.146 73.3298 108.865 73.386C108.64 73.4307 108.439 73.5007 108.261 73.596C108.083 73.6913 107.929 73.8056 107.801 73.9389C107.696 74.0434 107.603 74.1634 107.523 74.299C107.447 74.4277 107.383 74.569 107.33 74.723C107.249 74.5896 107.161 74.4758 107.064 74.3815C106.973 74.2804 106.87 74.1993 106.756 74.1384C106.608 74.0544 106.442 74.0038 106.26 73.9865C106.077 73.9691 105.877 73.9823 105.658 74.0258C105.21 74.1153 104.851 74.3093 104.582 74.608C104.318 74.8998 104.137 75.2646 104.039 75.7024L103.745 74.587ZM113.439 77.4113L113.476 77.5923C113.612 78.2761 113.835 78.8887 114.146 79.4301C114.456 79.9658 114.843 80.4084 115.307 80.7579C115.765 81.1086 116.291 81.3502 116.885 81.4826C117.484 81.6081 118.134 81.6009 118.835 81.461C119.53 81.3223 120.127 81.0806 120.626 80.7361C121.124 80.3858 121.517 79.9608 121.806 79.461C122.095 78.9612 122.28 78.4045 122.36 77.7909C122.44 77.1715 122.412 76.5199 122.276 75.8361L122.24 75.6551C122.104 74.977 121.882 74.3701 121.572 73.8345C121.261 73.2931 120.877 72.847 120.418 72.4963C119.954 72.1468 119.425 71.9058 118.831 71.7734C118.237 71.641 117.59 71.6447 116.889 71.7846C116.188 71.9245 115.588 72.1696 115.091 72.5199C114.599 72.869 114.208 73.2935 113.919 73.7933C113.625 74.2942 113.438 74.8543 113.358 75.4737C113.277 76.0873 113.304 76.7332 113.439 77.4113ZM115.872 77.1141L115.836 76.9331C115.76 76.5538 115.726 76.1872 115.733 75.8333C115.74 75.4793 115.798 75.157 115.908 74.8663C116.017 74.5756 116.183 74.3303 116.406 74.1305C116.629 73.9306 116.919 73.7951 117.275 73.724C117.637 73.6518 117.96 73.6651 118.242 73.7641C118.525 73.863 118.772 74.0258 118.985 74.2522C119.191 74.4799 119.366 74.7558 119.508 75.0799C119.65 75.404 119.759 75.7557 119.835 76.135L119.871 76.316C119.949 76.7067 119.985 77.082 119.979 77.4417C119.972 77.7956 119.916 78.1145 119.811 78.3983C119.701 78.689 119.535 78.9343 119.312 79.1341C119.089 79.334 118.802 79.4689 118.452 79.5388C118.09 79.6111 117.765 79.5983 117.476 79.5005C117.194 79.4015 116.946 79.2388 116.734 79.0123C116.523 78.7916 116.346 78.5192 116.204 78.195C116.06 77.8652 115.95 77.5049 115.872 77.1141ZM125.315 79.9796L127.72 79.4998L126.399 72.8713C126.454 72.7288 126.52 72.5961 126.597 72.4732C126.674 72.3502 126.766 72.2394 126.872 72.1406C127 72.0073 127.154 71.8959 127.334 71.8064C127.519 71.7157 127.726 71.6474 127.956 71.6015C128.232 71.5465 128.485 71.5259 128.715 71.5398C128.943 71.5479 129.149 71.6055 129.331 71.7124C129.514 71.8194 129.67 71.9855 129.798 72.2108C129.931 72.4292 130.035 72.7223 130.108 73.0901L131.245 78.7963L133.641 78.3181L132.497 72.5774C132.362 71.8993 132.167 71.3407 131.912 70.9016C131.662 70.4556 131.366 70.1085 131.024 69.8601C130.677 69.6186 130.294 69.4679 129.876 69.408C129.458 69.348 129.013 69.3651 128.542 69.4591C128.174 69.5325 127.837 69.6536 127.53 69.8224C127.223 69.9912 126.951 70.2008 126.714 70.4512C126.576 70.5982 126.45 70.7579 126.335 70.9303C126.22 71.1026 126.119 71.287 126.033 71.4835L125.629 70.2198L123.457 70.6532L125.315 79.9796ZM137.999 65.3761L135.603 65.8543L136.058 68.1385L133.929 68.5633L134.281 70.3304L136.41 69.9055L137.255 74.1464C137.377 74.7612 137.563 75.2739 137.812 75.6842C138.06 76.0888 138.361 76.4021 138.716 76.6241C139.067 76.8529 139.462 76.995 139.904 77.0504C140.349 77.0988 140.828 77.072 141.339 76.97C141.604 76.9172 141.868 76.8495 142.132 76.7669C142.404 76.6889 142.661 76.6016 142.905 76.5052C143.148 76.4088 143.375 76.3037 143.586 76.1901C143.795 76.0706 143.973 75.9455 144.12 75.8145L143.56 74.2146C143.456 74.2651 143.33 74.3202 143.18 74.3799C143.037 74.4385 142.881 74.4964 142.713 74.5538C142.541 74.6181 142.358 74.6784 142.167 74.7346C141.98 74.7897 141.795 74.8356 141.611 74.8722C141.359 74.9227 141.123 74.9398 140.905 74.9237C140.692 74.9063 140.5 74.843 140.329 74.7338C140.159 74.6303 140.012 74.4745 139.887 74.2665C139.766 74.0515 139.672 73.7745 139.604 73.4355L138.806 69.4273L142.288 68.7324L141.936 66.9654L138.454 67.6603L137.999 65.3761ZM147.312 67.228L146.276 62.0304L143.88 62.5086L146.518 75.7483L148.914 75.2701L147.573 68.5382C147.641 68.3992 147.719 68.2699 147.809 68.1505C147.904 68.0298 148.014 67.9213 148.138 67.8248C148.272 67.7146 148.426 67.621 148.602 67.544C148.778 67.4671 148.972 67.4074 149.185 67.365C149.461 67.31 149.715 67.298 149.949 67.3292C150.181 67.3545 150.389 67.4264 150.574 67.5449C150.759 67.6633 150.916 67.8352 151.044 68.0605C151.179 68.2847 151.279 68.5634 151.345 68.8967L152.474 74.5598L154.87 74.0816L153.745 68.4357C153.609 67.7519 153.409 67.1853 153.146 66.7358C152.888 66.2795 152.581 65.9254 152.227 65.6736C151.872 65.4218 151.476 65.2647 151.039 65.2025C150.602 65.1345 150.139 65.1492 149.65 65.2467C149.317 65.3132 149.011 65.4251 148.731 65.5824C148.452 65.7398 148.206 65.9321 147.995 66.1596C147.857 66.3066 147.729 66.4726 147.61 66.6576C147.496 66.8357 147.397 67.0258 147.312 67.228ZM162.625 69.872C162.654 70.0157 162.643 70.1553 162.592 70.2909C162.547 70.4253 162.462 70.5529 162.337 70.6735C162.206 70.7952 162.028 70.9083 161.804 71.0128C161.585 71.1104 161.32 71.1902 161.009 71.2521C160.751 71.3037 160.493 71.3283 160.235 71.3259C159.984 71.3223 159.752 71.282 159.539 71.2049C159.328 71.1336 159.144 71.0209 158.988 70.8668C158.831 70.707 158.718 70.5024 158.651 70.253L156.366 70.7088C156.442 71.0881 156.61 71.449 156.869 71.7916C157.133 72.1272 157.475 72.4055 157.896 72.6263C158.317 72.8529 158.813 73.0048 159.385 73.082C159.961 73.1581 160.6 73.1262 161.301 72.9863C161.939 72.859 162.503 72.6748 162.992 72.4337C163.481 72.1869 163.884 71.9003 164.201 71.5741C164.513 71.249 164.732 70.8946 164.859 70.5108C164.99 70.1201 165.014 69.7179 164.932 69.3042C164.843 68.856 164.665 68.491 164.4 68.2094C164.14 67.9208 163.811 67.6966 163.415 67.5367C163.02 67.3825 162.566 67.2817 162.055 67.2344C161.544 67.1871 160.997 67.1736 160.416 67.1941C160.014 67.2146 159.679 67.2127 159.411 67.1884C159.142 67.1585 158.926 67.1089 158.763 67.0399C158.595 66.9778 158.471 66.895 158.391 66.7915C158.31 66.6823 158.255 66.5588 158.228 66.4209C158.2 66.2829 158.206 66.1473 158.245 66.014C158.289 65.8739 158.365 65.7452 158.473 65.628C158.59 65.4971 158.752 65.3811 158.959 65.28C159.166 65.179 159.416 65.0992 159.709 65.0407C160.054 64.9719 160.355 64.9566 160.614 64.9946C160.878 65.0315 161.097 65.1074 161.269 65.2224C161.394 65.311 161.496 65.419 161.575 65.5466C161.653 65.6685 161.708 65.807 161.739 65.9621L164.135 65.4839C164.049 65.053 163.875 64.6725 163.612 64.3426C163.349 64.0127 163.012 63.7482 162.602 63.5492C162.188 63.3571 161.707 63.238 161.16 63.1918C160.612 63.1398 160.013 63.1786 159.364 63.3082C158.743 63.432 158.201 63.6209 157.738 63.8746C157.275 64.1284 156.897 64.4218 156.605 64.755C156.313 65.0881 156.11 65.4483 155.996 65.8355C155.882 66.2228 155.863 66.6089 155.94 66.9939C156.019 67.3904 156.178 67.7231 156.417 67.9922C156.661 68.26 156.967 68.4768 157.335 68.6424C157.704 68.8138 158.129 68.9381 158.61 69.0153C159.096 69.0856 159.623 69.1209 160.191 69.1211C160.638 69.1156 161.01 69.1249 161.307 69.1492C161.605 69.1735 161.849 69.2144 162.04 69.2719C162.226 69.3363 162.361 69.4168 162.446 69.5134C162.537 69.6088 162.597 69.7284 162.625 69.872ZM50.1124 113.739C50.141 113.883 50.13 114.023 50.0793 114.158C50.0344 114.293 49.9493 114.42 49.824 114.541C49.6929 114.663 49.5153 114.776 49.2912 114.88C49.0716 114.978 48.8067 115.058 48.4964 115.12C48.2378 115.171 47.9799 115.196 47.7225 115.193C47.4708 115.19 47.2388 115.149 47.0262 115.072C46.8149 115.001 46.6311 114.888 46.4749 114.734C46.3176 114.574 46.2052 114.37 46.1375 114.12L43.8535 114.576C43.9291 114.956 44.0966 115.316 44.356 115.659C44.62 115.995 44.9623 116.273 45.3827 116.494C45.8042 116.72 46.3005 116.872 46.8715 116.949C47.4483 117.026 48.0872 116.994 48.7882 116.854C49.426 116.727 49.9897 116.542 50.4794 116.301C50.9679 116.054 51.3709 115.768 51.6882 115.442C51.9999 115.116 52.219 114.762 52.3457 114.378C52.477 113.988 52.5014 113.585 52.4189 113.172C52.3296 112.723 52.1524 112.358 51.8871 112.077C51.6265 111.788 51.298 111.564 50.9017 111.404C50.5066 111.25 50.0533 111.149 49.542 111.102C49.0307 111.055 48.4844 111.041 47.9029 111.062C47.5008 111.082 47.1658 111.08 46.8981 111.056C46.6292 111.026 46.4133 110.976 46.2501 110.907C46.0824 110.845 45.9584 110.762 45.878 110.659C45.7965 110.55 45.742 110.426 45.7146 110.288C45.6871 110.15 45.6929 110.015 45.7321 109.882C45.7758 109.741 45.8518 109.613 45.9599 109.495C46.0772 109.365 46.2393 109.249 46.4462 109.147C46.6531 109.046 46.903 108.967 47.1961 108.908C47.5409 108.839 47.8425 108.824 48.101 108.862C48.3653 108.899 48.5835 108.975 48.7558 109.09C48.881 109.178 48.9832 109.286 49.0624 109.414C49.1404 109.536 49.1949 109.674 49.2258 109.83L51.6219 109.351C51.536 108.92 51.3617 108.54 51.0988 108.21C50.8359 107.88 50.4994 107.616 50.0893 107.417C49.6746 107.225 49.1938 107.105 48.6469 107.059C48.0989 107.007 47.5002 107.046 46.8509 107.176C46.2303 107.3 45.6884 107.488 45.2251 107.742C44.7619 107.996 44.3842 108.289 44.0921 108.622C43.8 108.956 43.597 109.316 43.4829 109.703C43.3689 110.09 43.3502 110.476 43.427 110.861C43.506 111.258 43.6649 111.591 43.9037 111.86C44.1482 112.127 44.4543 112.344 44.8219 112.51C45.1906 112.681 45.6157 112.806 46.0971 112.883C46.5831 112.953 47.1099 112.988 47.6775 112.989C48.1245 112.983 48.4968 112.992 48.7944 113.017C49.092 113.041 49.3361 113.082 49.5268 113.139C49.7129 113.204 49.8484 113.284 49.9334 113.381C50.0241 113.476 50.0838 113.596 50.1124 113.739ZM61.2929 114.17L63.4649 113.737L61.6067 104.41L59.2019 104.89L60.5055 111.432C60.4605 111.597 60.3984 111.75 60.319 111.891C60.2396 112.032 60.1424 112.159 60.0274 112.272C59.8918 112.4 59.7257 112.511 59.5291 112.604C59.3383 112.696 59.1165 112.767 58.8636 112.818C58.5821 112.874 58.3368 112.887 58.1276 112.857C57.9185 112.827 57.7376 112.744 57.5849 112.607C57.4333 112.476 57.303 112.287 57.1941 112.039C57.0908 111.791 57.0014 111.477 56.9258 111.098L55.8232 105.564L53.4271 106.043L54.5263 111.559C54.6671 112.266 54.8655 112.857 55.1214 113.331C55.3819 113.799 55.6879 114.165 56.0393 114.43C56.3918 114.7 56.7841 114.87 57.2161 114.939C57.6481 115.008 58.1054 114.994 58.5881 114.898C59.1168 114.793 59.576 114.564 59.9657 114.211C60.3613 113.857 60.6707 113.416 60.894 112.887L61.2929 114.17ZM73.3027 107.023L73.2667 106.842C73.1545 106.279 72.9974 105.761 72.7955 105.287C72.5994 104.813 72.3584 104.398 72.0725 104.042C71.8911 103.822 71.6936 103.625 71.48 103.453C71.2653 103.274 71.0367 103.132 70.7943 103.025C70.4911 102.882 70.1596 102.793 69.8 102.757C69.4461 102.72 69.0681 102.742 68.6658 102.822C68.3728 102.881 68.1062 102.967 67.8659 103.08C67.6303 103.187 67.4182 103.322 67.2296 103.485C67.0963 103.596 66.975 103.721 66.8657 103.863C66.7553 103.998 66.6558 104.143 66.5672 104.299L65.6192 99.5406L63.2231 100.019L65.8611 113.258L68.0158 112.828L67.9304 111.815C68.0532 111.922 68.1801 112.019 68.3111 112.106C68.4409 112.188 68.5775 112.259 68.7211 112.32C68.9911 112.446 69.2812 112.522 69.5914 112.55C69.9085 112.582 70.2481 112.562 70.6101 112.49C71.0065 112.411 71.3582 112.287 71.6651 112.118C71.979 111.954 72.2491 111.751 72.4757 111.508C72.7286 111.249 72.9311 110.945 73.083 110.598C73.2407 110.25 73.3484 109.876 73.4061 109.476C73.4592 109.113 73.4779 108.727 73.4621 108.318C73.4452 107.903 73.392 107.472 73.3027 107.023ZM70.8705 107.321L70.9066 107.502C70.9547 107.743 70.9896 107.978 71.0112 108.207C71.0387 108.434 71.0483 108.647 71.0401 108.846C71.0342 109.116 70.9943 109.366 70.9206 109.596C70.8515 109.819 70.7405 110.011 70.5876 110.173C70.4795 110.29 70.3444 110.392 70.1823 110.478C70.0202 110.564 69.8329 110.629 69.6203 110.671C69.3732 110.72 69.1463 110.736 68.9394 110.717C68.7384 110.698 68.5551 110.648 68.3897 110.567C68.2519 110.505 68.1256 110.426 68.0107 110.329C67.9005 110.226 67.7966 110.109 67.699 109.979L66.9588 106.264C66.9887 106.144 67.0262 106.032 67.0711 105.928C67.1148 105.817 67.1666 105.718 67.2264 105.628C67.3506 105.442 67.5139 105.287 67.7162 105.163C67.9185 105.039 68.1633 104.948 68.4507 104.891C68.6633 104.848 68.858 104.836 69.035 104.855C69.2108 104.867 69.3745 104.909 69.5261 104.981C69.7581 105.096 69.9419 105.238 70.0773 105.408C70.2174 105.572 70.3425 105.765 70.4527 105.988C70.5445 106.179 70.6247 106.387 70.6935 106.612C70.7623 106.837 70.8213 107.073 70.8705 107.321ZM81.9169 107.393C81.9455 107.536 81.9345 107.676 81.8839 107.811C81.8389 107.946 81.7538 108.073 81.6285 108.194C81.4974 108.316 81.3198 108.429 81.0957 108.533C80.8761 108.631 80.6112 108.711 80.3009 108.773C80.0424 108.824 79.7844 108.849 79.527 108.846C79.2753 108.843 79.0433 108.802 78.8307 108.725C78.6194 108.654 78.4356 108.541 78.2794 108.387C78.1221 108.227 78.0097 108.023 77.9421 107.773L75.658 108.229C75.7336 108.609 75.9011 108.969 76.1605 109.312C76.4246 109.648 76.7668 109.926 77.1872 110.147C77.6087 110.373 78.105 110.525 78.676 110.603C79.2528 110.679 79.8917 110.647 80.5927 110.507C81.2305 110.38 81.7943 110.195 82.2839 109.954C82.7724 109.707 83.1754 109.421 83.4928 109.095C83.8044 108.769 84.0235 108.415 84.1502 108.031C84.2815 107.641 84.3059 107.238 84.2235 106.825C84.1341 106.376 83.9569 106.011 83.6916 105.73C83.431 105.441 83.1025 105.217 82.7062 105.057C82.3111 104.903 81.8578 104.802 81.3466 104.755C80.8353 104.708 80.2889 104.694 79.7075 104.715C79.3053 104.735 78.9703 104.733 78.7026 104.709C78.4338 104.679 78.2178 104.629 78.0547 104.56C77.8869 104.498 77.7629 104.415 77.6825 104.312C77.601 104.203 77.5465 104.079 77.5191 103.941C77.4916 103.803 77.4974 103.668 77.5366 103.535C77.5804 103.394 77.6563 103.266 77.7644 103.148C77.8817 103.018 78.0438 102.902 78.2507 102.801C78.4576 102.699 78.7076 102.62 79.0006 102.561C79.3454 102.492 79.647 102.477 79.9055 102.515C80.1698 102.552 80.388 102.628 80.5603 102.743C80.6855 102.831 80.7877 102.94 80.8669 103.067C80.9449 103.189 80.9994 103.327 81.0303 103.483L83.4264 103.004C83.3406 102.573 83.1662 102.193 82.9033 101.863C82.6404 101.533 82.3039 101.269 81.8938 101.07C81.4792 100.878 80.9984 100.758 80.4514 100.712C79.9034 100.66 79.3047 100.699 78.6554 100.829C78.0348 100.953 77.4929 101.141 77.0297 101.395C76.5664 101.649 76.1887 101.942 75.8966 102.275C75.6045 102.609 75.4015 102.969 75.2875 103.356C75.1734 103.743 75.1548 104.129 75.2315 104.514C75.3105 104.911 75.4694 105.244 75.7082 105.513C75.9527 105.78 76.2588 105.997 76.6264 106.163C76.9951 106.334 77.4202 106.459 77.9016 106.536C78.3876 106.606 78.9144 106.641 79.482 106.642C79.929 106.636 80.3013 106.645 80.5989 106.67C80.8965 106.694 81.1406 106.735 81.3313 106.792C81.5174 106.857 81.6529 106.937 81.7379 107.034C81.8286 107.129 81.8883 107.249 81.9169 107.393ZM90.794 106.472C90.409 106.549 90.0746 106.535 89.7909 106.431C89.5129 106.325 89.2763 106.157 89.0811 105.927C88.8814 105.704 88.7195 105.431 88.5957 105.11C88.4706 104.782 88.3721 104.437 88.2999 104.075L88.2484 103.817C88.1774 103.46 88.1375 103.11 88.1285 102.765C88.1253 102.419 88.1727 102.102 88.2705 101.814C88.3627 101.526 88.5168 101.281 88.733 101.076C88.9491 100.872 89.2468 100.732 89.6261 100.656C89.8847 100.604 90.1323 100.603 90.369 100.651C90.6045 100.694 90.8147 100.774 90.9996 100.893C91.1845 101.011 91.3378 101.166 91.4595 101.357C91.5811 101.547 91.6591 101.759 91.6934 101.991L93.9516 101.54C93.8532 100.986 93.6622 100.508 93.3787 100.104C93.094 99.6949 92.745 99.3673 92.3315 99.1212C91.9134 98.8819 91.443 98.7249 90.9202 98.65C90.3974 98.575 89.8487 98.5949 89.2741 98.7096C88.5559 98.8529 87.9484 99.1026 87.4518 99.4586C86.9609 99.8135 86.5739 100.24 86.2909 100.739C86.0079 101.238 85.8317 101.792 85.7623 102.404C85.6918 103.009 85.7218 103.64 85.8523 104.295L85.9038 104.553C86.0344 105.209 86.2488 105.805 86.5472 106.343C86.8501 106.874 87.2279 107.316 87.6803 107.667C88.1271 108.02 88.648 108.266 89.2431 108.404C89.8371 108.536 90.4961 108.53 91.2201 108.386C91.7544 108.279 92.2435 108.095 92.6872 107.833C93.1355 107.565 93.5109 107.245 93.8134 106.874C94.1159 106.503 94.3293 106.09 94.4537 105.635C94.5839 105.178 94.5951 104.71 94.4875 104.23L92.2293 104.68C92.2843 104.896 92.2835 105.103 92.2271 105.299C92.1764 105.494 92.0832 105.671 91.9475 105.83C91.8118 105.988 91.6445 106.123 91.4457 106.235C91.2468 106.346 91.0296 106.425 90.794 106.472ZM102.418 96.0865C101.792 96.2115 101.245 96.479 100.777 96.8891C100.308 97.2934 99.9363 97.7977 99.6624 98.4021L99.6039 98.1986L99.2463 96.8987L97.014 97.3442L98.8722 106.671L101.268 106.193L100.152 100.59C100.209 100.304 100.301 100.046 100.428 99.8176C100.556 99.589 100.725 99.3879 100.935 99.2145C101.109 99.0663 101.314 98.9417 101.551 98.8407C101.792 98.7328 102.068 98.6479 102.379 98.586C102.677 98.5263 102.995 98.4839 103.33 98.4588C103.67 98.4268 104.006 98.4166 104.337 98.4282L104.214 95.9701C104.013 95.9504 103.753 95.9486 103.434 95.9645C103.119 95.9736 102.78 96.0143 102.418 96.0865ZM106.995 95.3524L107.385 97.3091L110.039 96.7793L111.12 102.201L108.465 102.731L108.853 104.679L116.455 103.162L116.067 101.214L113.542 101.718L112.072 94.3393L106.995 95.3524ZM109.001 92.4694C109.038 92.6533 109.104 92.8194 109.199 92.9677C109.299 93.1091 109.42 93.2223 109.563 93.3074C109.706 93.3983 109.868 93.4587 110.047 93.4886C110.232 93.5174 110.428 93.5112 110.635 93.4699C111.06 93.3851 111.373 93.2002 111.573 92.9153C111.777 92.6235 111.843 92.2908 111.768 91.9173C111.694 91.5438 111.507 91.2644 111.207 91.0793C110.912 90.8872 110.552 90.8336 110.126 90.9185C109.919 90.9598 109.736 91.0292 109.576 91.1268C109.422 91.2233 109.296 91.3382 109.197 91.4714C109.099 91.6104 109.032 91.7673 108.995 91.9419C108.963 92.1097 108.965 92.2855 109.001 92.4694ZM119.566 106.269L121.962 105.791L121.086 101.395C121.219 101.494 121.356 101.58 121.496 101.654C121.636 101.728 121.78 101.791 121.929 101.845C122.178 101.927 122.438 101.974 122.709 101.985C122.987 102.002 123.281 101.979 123.592 101.917C124.178 101.8 124.674 101.575 125.08 101.243C125.485 100.912 125.801 100.502 126.027 100.015C126.248 99.5346 126.378 98.9888 126.417 98.3774C126.463 97.7649 126.418 97.1196 126.283 96.4416L126.247 96.2606C126.106 95.5537 125.897 94.9262 125.621 94.3779C125.349 93.8227 125.016 93.3664 124.622 93.0088C124.229 92.657 123.783 92.4143 123.285 92.2808C122.785 92.1415 122.239 92.131 121.648 92.2491C121.36 92.3064 121.096 92.3919 120.856 92.5056C120.621 92.6123 120.41 92.741 120.225 92.8914C120.071 93.0178 119.932 93.159 119.808 93.3153C119.682 93.4658 119.572 93.6312 119.476 93.8116L119.208 92.9151L116.993 93.3572L119.566 106.269ZM123.85 96.7387L123.887 96.9197C123.963 97.3048 124.001 97.6765 124.001 98.0351C124 98.3879 123.95 98.7085 123.852 98.9969C123.754 99.2853 123.6 99.5283 123.388 99.7258C123.182 99.9223 122.91 100.054 122.571 100.122C122.358 100.164 122.162 100.183 121.981 100.177C121.8 100.165 121.635 100.132 121.487 100.078C121.332 100.02 121.188 99.9409 121.054 99.842C120.927 99.742 120.811 99.6247 120.706 99.4902L119.93 95.5942C119.979 95.4172 120.045 95.2575 120.13 95.115C120.221 94.9714 120.333 94.8445 120.467 94.7342C120.585 94.6389 120.721 94.5579 120.875 94.4914C121.028 94.419 121.202 94.3634 121.398 94.3244C121.737 94.2567 122.038 94.2712 122.303 94.3679C122.573 94.4634 122.81 94.6192 123.014 94.8353C123.214 95.0583 123.383 95.3354 123.52 95.6664C123.663 95.9905 123.773 96.348 123.85 96.7387ZM131.501 88.087L129.105 88.5651L129.56 90.8493L127.431 91.2742L127.783 93.0412L129.912 92.6164L130.757 96.8572C130.879 97.4721 131.065 97.9847 131.314 98.3951C131.562 98.7997 131.863 99.113 132.218 99.3349C132.569 99.5637 132.964 99.7058 133.406 99.7612C133.851 99.8097 134.33 99.7829 134.841 99.6808C135.106 99.6281 135.37 99.5604 135.634 99.4777C135.906 99.3997 136.163 99.3125 136.407 99.2161C136.65 99.1196 136.877 99.0146 137.088 98.9009C137.297 98.7815 137.475 98.6563 137.622 98.5253L137.062 96.9254C136.958 96.976 136.832 97.0311 136.682 97.0908C136.539 97.1493 136.383 97.2073 136.215 97.2647C136.043 97.3289 135.86 97.3892 135.669 97.4454C135.482 97.5005 135.297 97.5464 135.113 97.5831C134.861 97.6335 134.625 97.6507 134.407 97.6345C134.194 97.6172 134.002 97.5539 133.831 97.4446C133.661 97.3411 133.514 97.1853 133.389 96.9773C133.268 96.7623 133.174 96.4853 133.107 96.1463L132.308 92.1382L135.79 91.4433L135.438 89.6763L131.956 90.3712L131.501 88.087ZM138.799 89.0054L139.189 90.9621L141.844 90.4323L142.924 95.8541L140.27 96.3838L140.658 98.3319L148.26 96.8148L147.872 94.8667L145.346 95.3707L143.876 87.9923L138.799 89.0054ZM140.806 86.1224C140.843 86.3063 140.909 86.4724 141.004 86.6207C141.104 86.7621 141.225 86.8753 141.367 86.9604C141.511 87.0513 141.672 87.1117 141.851 87.1416C142.036 87.1704 142.232 87.1642 142.439 87.1229C142.864 87.0381 143.177 86.8532 143.377 86.5683C143.582 86.2765 143.647 85.9438 143.573 85.5703C143.498 85.1968 143.311 84.9174 143.011 84.7323C142.716 84.5402 142.356 84.4867 141.931 84.5715C141.724 84.6128 141.541 84.6822 141.381 84.7798C141.227 84.8763 141.1 84.9912 141.001 85.1244C140.904 85.2634 140.836 85.4203 140.799 85.5949C140.767 85.7627 140.769 85.9385 140.806 86.1224ZM149.348 91.6594L149.384 91.8405C149.52 92.5243 149.743 93.1369 150.054 93.6783C150.364 94.2139 150.751 94.6565 151.215 95.0061C151.673 95.3568 152.2 95.5984 152.794 95.7308C153.392 95.8563 154.042 95.8491 154.743 95.7092C155.438 95.5704 156.035 95.3288 156.534 94.9843C157.032 94.634 157.425 94.2089 157.714 93.7092C158.003 93.2094 158.188 92.6527 158.268 92.0391C158.348 91.4197 158.32 90.7681 158.184 90.0843L158.148 89.9033C158.013 89.2252 157.79 88.6183 157.48 88.0827C157.169 87.5413 156.785 87.0952 156.326 86.7445C155.862 86.395 155.333 86.154 154.739 86.0216C154.145 85.8892 153.498 85.8929 152.797 86.0328C152.096 86.1727 151.497 86.4178 150.999 86.7681C150.507 87.1172 150.116 87.5417 149.828 88.0414C149.533 88.5424 149.346 89.1025 149.266 89.7219C149.185 90.3355 149.212 90.9814 149.348 91.6594ZM151.78 91.3623L151.744 91.1813C151.668 90.802 151.634 90.4354 151.641 90.0814C151.648 89.7275 151.706 89.4052 151.816 89.1145C151.925 88.8238 152.091 88.5785 152.314 88.3786C152.537 88.1788 152.827 88.0433 153.183 87.9722C153.545 87.9 153.868 87.9133 154.15 88.0123C154.433 88.1112 154.68 88.2739 154.893 88.5004C155.099 88.7281 155.274 89.0039 155.416 89.3281C155.558 89.6522 155.667 90.0039 155.743 90.3832L155.779 90.5642C155.857 90.9549 155.893 91.3302 155.887 91.6898C155.88 92.0438 155.824 92.3627 155.719 92.6465C155.61 92.9372 155.443 93.1824 155.22 93.3823C154.997 93.5822 154.71 93.7171 154.36 93.787C153.998 93.8593 153.673 93.8465 153.384 93.7487C153.102 93.6497 152.854 93.487 152.642 93.2605C152.431 93.0398 152.254 92.7674 152.112 92.4432C151.968 92.1133 151.858 91.753 151.78 91.3623ZM161.223 94.2278L163.628 93.7479L162.307 87.1194C162.362 86.977 162.428 86.8443 162.505 86.7213C162.582 86.5984 162.674 86.4875 162.78 86.3888C162.908 86.2555 163.063 86.1441 163.242 86.0545C163.427 85.9638 163.634 85.8956 163.864 85.8497C164.14 85.7946 164.393 85.7741 164.623 85.788C164.851 85.7961 165.057 85.8537 165.24 85.9606C165.422 86.0676 165.578 86.2337 165.706 86.459C165.839 86.6774 165.943 86.9705 166.016 87.3382L167.153 93.0444L169.549 92.5663L168.405 86.8256C168.27 86.1475 168.075 85.5889 167.82 85.1498C167.57 84.7038 167.274 84.3566 166.932 84.1083C166.585 83.8668 166.202 83.7161 165.784 83.6561C165.366 83.5962 164.921 83.6133 164.45 83.7073C164.082 83.7807 163.745 83.9018 163.438 84.0706C163.131 84.2394 162.859 84.449 162.622 84.6994C162.484 84.8464 162.358 85.0061 162.243 85.1784C162.128 85.3508 162.027 85.5352 161.941 85.7316L161.537 84.4679L159.365 84.9014L161.223 94.2278Z" fill="#42407C"/>
</svg>
