<?xml version="1.0" encoding="UTF-8" standalone="no"?>
<!DOCTYPE svg PUBLIC "-//W3C//DTD SVG 1.1//EN" "http://www.w3.org/Graphics/SVG/1.1/DTD/svg11.dtd">
<svg width="100%" height="100%" viewBox="0 0 124 124" version="1.1" xmlns="http://www.w3.org/2000/svg" xmlns:xlink="http://www.w3.org/1999/xlink" xml:space="preserve" xmlns:serif="http://www.serif.com/" style="fill-rule:evenodd;clip-rule:evenodd;stroke-linejoin:round;stroke-miterlimit:2;">
    <g transform="matrix(1,0,0,1,-442.479,-9.40529)">
        <path d="M543.412,102.904L555.779,100.912C559.255,100.361 561.075,96.526 559.427,93.457L553.373,82.414C552.68,81.147 552.973,79.5 554.129,78.569L563.822,70.516C566.538,68.257 566.201,64.022 563.157,62.261L552.919,56.158C551.636,55.408 551.12,53.804 551.625,52.415L555.883,41.298C557.154,38.041 554.753,34.493 551.252,34.398L539.103,34.087C537.619,34.041 536.401,32.984 536.18,31.497L534.334,19.47C533.785,15.991 530.016,14.131 526.897,15.771L515.894,21.68C514.628,22.375 512.993,22.031 512.052,20.925L504.214,11.269C502.009,8.563 497.788,8.851 495.936,11.825L489.576,22.287C488.826,23.571 487.223,24.088 485.847,23.532L474.455,19.108C471.202,17.837 467.667,20.191 467.57,23.694L467.23,36.222C467.185,37.708 466.128,38.927 464.693,39.159L452.315,41.202C448.89,41.764 447.019,45.588 448.718,48.668L454.771,59.711C455.465,60.978 455.172,62.625 454.016,63.556L444.322,71.609C441.607,73.868 441.944,78.103 444.987,79.864L455.226,85.967C456.509,86.717 457.025,88.321 456.52,89.71L452.262,100.827C450.991,104.084 453.392,107.632 456.893,107.727L469.042,108.039C470.526,108.084 471.744,109.14 471.965,110.628L473.811,122.655C474.36,126.134 478.129,127.994 481.248,126.354L492.251,120.445C493.517,119.751 495.152,120.094 496.093,121.2L503.972,130.918C506.177,133.623 510.398,133.336 512.25,130.362L518.61,119.9C519.359,118.616 520.962,118.099 522.338,118.655L533.73,123.079C536.984,124.35 540.519,121.996 540.615,118.493L540.955,105.964C540.92,104.355 541.976,103.136 543.412,102.904Z" style="fill:rgb(247,227,0);fill-rule:nonzero;"/>
    </g>
</svg>
